<svg id="Layer_1" data-name="Layer 1" xmlns="http://www.w3.org/2000/svg" viewBox="0 0 141.73 194.38"><defs><style>.cls-1{opacity:0.3;}.cls-2{fill:#390075;}.cls-3{fill:#fff;}.cls-4{fill:#d3ddea;}.cls-5{fill:#f6a42b;}.cls-6{fill:#ef7e21;}.cls-7{fill:#380072;}.cls-8{opacity:0.7;}.cls-9{opacity:0.6;}.cls-10{opacity:0.5;}.cls-11{fill:#ee7a7c;}.cls-12{fill:#ee7e80;}.cls-13{fill:#ea5c66;}.cls-14{fill:#f1959e;}.cls-15{opacity:0.67;}</style></defs><g class="cls-1"><ellipse class="cls-2" cx="73.67" cy="186.05" rx="59.64" ry="8.33"/></g><path class="cls-3" d="M94.11,151.38c5.84,8.07,19.12,13.05,29,2.56a14.32,14.32,0,0,0,4-10.85c-.45-10.85-10.63-23-13.36-30.58-1.05-2.91-1-5.16,1.09-6.43,5.52-3.35,5.69,6.61,12.54,6.53,2.86,0,9.68-4.31,4.8-13.57a17.63,17.63,0,0,0-29.26-3c-4.33,5.2-4,10.92-1.83,16.69,5.4,14.06,22.21,28.4,11.42,36.1-2.82,2-6,1.49-9-.35-8.52-5.09-16.67-20.28-16.67-20.28s1.46,15.15,7.3,23.21"/><path class="cls-4" d="M94.11,151.38c5.84,8.07,19.12,13.05,29,2.56a14.32,14.32,0,0,0,4-10.85c-3.09,8.81-13.24,17.54-23.64,5.36-8.51-5.09-16.67-20.28-16.67-20.28s1.46,15.15,7.3,23.21"/><path class="cls-5" d="M101.1,112.7c5.11,2.64,10.3.86,12.23,0l.43-.2c-1.05-2.91-1-5.16,1.09-6.43,5.52-3.35,5.69,6.61,12.54,6.53,2.5,0,8-3.29,6.12-10.3A15.77,15.77,0,0,0,132.19,99a17.64,17.64,0,0,0-29.26-3c-4.33,5.21-4,10.93-1.82,16.7"/><path class="cls-6" d="M113.33,112.71l.43-.2c-1-2.91-1-5.16,1.1-6.43,5.51-3.35,5.69,6.61,12.53,6.53,2.5,0,8-3.29,6.12-10.3-.81,2.21-2.67,5.36-6.75,5.58-5.35.29-6.27-4-9.07-6.77-3.53-3.44-12,3.88-4.36,11.59"/><path class="cls-7" d="M110.18,161.3c-.4,0-.81,0-1.21,0a22.09,22.09,0,0,1-16-9c-6-8.28-7.5-23.27-7.56-23.9a1.41,1.41,0,0,1,2.64-.8c.11.19,10.27,18.93,19.14,21a5.32,5.32,0,0,0,4.51-.85c5.89-4.21,2.23-10.58-4.24-20.63-6.58-10.22-14-21.81-5.61-31.93a19.27,19.27,0,0,1,16.85-6.83,18.68,18.68,0,0,1,14.73,10.11c2.88,5.45,1.93,9.19.63,11.38A8.6,8.6,0,0,1,127.4,114h-.09c-3.93,0-6.06-2.77-7.61-4.8-1.92-2.49-2.48-2.93-4.12-1.94-2.63,1.6-.15,6.32,4.26,13.91,3,5.12,6.34,10.92,7.87,16.69,1.84,7,.67,12.52-3.57,17A18.91,18.91,0,0,1,110.18,161.3ZM89.36,135.1c1,4.88,2.84,11.24,5.89,15.46a19.24,19.24,0,0,0,13.9,7.9c4.79.31,9.27-1.59,12.94-5.49,8-8.5,1-20.62-4.69-30.36a61.82,61.82,0,0,1-5.11-10c-1.21-3.65-.6-6.24,1.83-7.71,3.95-2.4,6.18.51,7.81,2.63,1.46,1.9,2.84,3.7,5.38,3.7h.06a5.93,5.93,0,0,0,4.27-2.89c1.33-2.24,1.09-5.23-.7-8.62a15.89,15.89,0,0,0-12.54-8.62A16.41,16.41,0,0,0,104,96.91c-7.11,8.52-.54,18.73,5.81,28.59,5.84,9.08,11.89,18.47,3.51,24.45a8,8,0,0,1-6.79,1.3C100,149.73,93.38,141.19,89.36,135.1Z"/><g class="cls-8"><path class="cls-3" d="M116.89,92.42a11.54,11.54,0,0,0-11.08,4.82c-2.42,3.5-1,4.53.17,3.88,2.11-1.18,2.56-4.46,9.65-6.26,3.72-1,2.69-2.12,1.26-2.45"/></g><g class="cls-8"><path class="cls-3" d="M123.26,93.44a2.57,2.57,0,0,0-2.58-.73c-1.36.27-1.63,1.43-1.09,1.93s2.44,1.51,3.41.93a1.29,1.29,0,0,0,.26-2.13"/></g><path class="cls-3" d="M65.84,184.23c-3.23,4-14,2.68-17.93,2.47-4.24-.22-5.26-3.46-4.78-5.92a6.32,6.32,0,0,1,.24-.85,7.33,7.33,0,0,1,4.07-4.1c-3-7.26-5.28-19-6.06-28.12a50.69,50.69,0,0,1-.05-10.4l28.42,13.42c-4.27,15.51,0,28.65-3.91,33.5"/><path class="cls-4" d="M65.84,184.23c-3.23,4-14,2.68-17.93,2.47-4.24-.22-5.26-3.46-4.78-5.92.9,1.12,3.06,2.9,7.54,2.93,8.31.07,13.41.07,13.85-8.08s-1.89-12.17-2.88-13.78c-1.26-2-15-4.59-20.26-14.14a50.69,50.69,0,0,1-.05-10.4l28.42,13.42c-4.27,15.51,0,28.65-3.91,33.5"/><path class="cls-7" d="M55.56,188.49c-2.2,0-4.34-.15-6.09-.28l-1.64-.1a6.25,6.25,0,0,1-5.22-2.7,6.78,6.78,0,0,1-.56-6,8.45,8.45,0,0,1,3.61-4.28c-4.24-11.13-6.8-30.42-5.72-38l2.79.39c-1.08,7.59,1.64,27.28,6,37.79a1.4,1.4,0,0,1-.76,1.84l-.07,0a5.93,5.93,0,0,0-3.22,3.26,4,4,0,0,0,.28,3.45,3.59,3.59,0,0,0,3,1.43c.48,0,1.05.06,1.69.11,4.12.29,12.68.9,15.08-2.06,1.59-2,1.55-6.14,1.51-11.4-.05-6-.11-13.44,2.13-21.59l2.72.75c-2.14,7.77-2.08,15-2,20.81s.08,10.44-2.14,13.2S60,188.49,55.56,188.49Z"/><path class="cls-7" d="M55.63,179.72a8.65,8.65,0,0,0-.67.92,4.1,4.1,0,0,0-.46,1,2,2,0,0,0-.12.48,4.85,4.85,0,0,0-.08.55,4,4,0,0,0,.05,1,2.61,2.61,0,0,0,1,1.57,6.49,6.49,0,0,0,2,.94h0a.82.82,0,0,1-.39,1.59,6.36,6.36,0,0,1-2.68-1.11,4.2,4.2,0,0,1-1.08-1.18,4,4,0,0,1-.54-1.52,5.16,5.16,0,0,1,0-1.52,4.61,4.61,0,0,1,.15-.72A4.06,4.06,0,0,1,54,179.8a3.8,3.8,0,0,1,1.24-.77.4.4,0,0,1,.53.24.44.44,0,0,1-.06.41Z"/><path class="cls-7" d="M49.18,179.53a7.53,7.53,0,0,0-.68.92,5.06,5.06,0,0,0-.46,1,3.74,3.74,0,0,0-.12.48,4.86,4.86,0,0,0-.07.55,3.57,3.57,0,0,0,0,1,2.52,2.52,0,0,0,1,1.57,6.49,6.49,0,0,0,2,.94h0a.82.82,0,0,1,.54,1,.83.83,0,0,1-.93.57,6.33,6.33,0,0,1-2.69-1.11,4.2,4.2,0,0,1-1.08-1.18,4.13,4.13,0,0,1-.54-1.52,4.84,4.84,0,0,1,0-1.52,6.1,6.1,0,0,1,.14-.72,5,5,0,0,1,.28-.73,4.24,4.24,0,0,1,.91-1.19,3.86,3.86,0,0,1,1.23-.77.41.41,0,0,1,.54.23.43.43,0,0,1-.07.41Z"/><path class="cls-3" d="M75.77,184.23c3.23,4,14,2.68,17.93,2.47,4.24-.22,5.26-3.46,4.78-5.92a6.32,6.32,0,0,0-.24-.85,7.33,7.33,0,0,0-4.07-4.1c3-7.26,5.28-19,6.06-28.12a50.69,50.69,0,0,0,0-10.4L71.86,150.73c4.27,15.51,0,28.65,3.91,33.5"/><path class="cls-4" d="M75.77,184.23c3.23,4,14,2.68,17.93,2.47,4.24-.22,5.26-3.46,4.78-5.92-.9,1.12-3,2.9-7.54,2.93-8.31.07-13.41.07-13.85-8.08S79,163.46,80,161.85c1.26-2,15-4.59,20.26-14.14a50.69,50.69,0,0,0,0-10.4L71.86,150.73c4.27,15.51,0,28.65,3.91,33.5"/><path class="cls-7" d="M86.05,188.49c-4.46,0-9.16-.62-11.38-3.38s-2.18-7.36-2.14-13.19.11-13-2-20.81l2.72-.75c2.24,8.15,2.18,15.6,2.13,21.59,0,5.26-.08,9.42,1.51,11.4,2.4,3,11,2.35,15.08,2.06l1.69-.12a3.56,3.56,0,0,0,3-1.42,4,4,0,0,0,.28-3.45,6,6,0,0,0-3.23-3.27,1.42,1.42,0,0,1-.84-1.82l0,0c4.37-10.51,7.09-30.2,6-37.79l2.79-.39c1.09,7.63-1.48,26.92-5.71,38a8.53,8.53,0,0,1,3.6,4.28,6.81,6.81,0,0,1-.56,6,6.27,6.27,0,0,1-5.22,2.69c-.46,0-1,.06-1.64.11C90.39,188.34,88.25,188.49,86.05,188.49Z"/><path class="cls-7" d="M86.4,179a4,4,0,0,1,1.24.77,4.43,4.43,0,0,1,.91,1.2,5.8,5.8,0,0,1,.28.73,6.1,6.1,0,0,1,.14.72A5.16,5.16,0,0,1,89,184a4.39,4.39,0,0,1-.54,1.52,4.66,4.66,0,0,1-1.08,1.18,6.45,6.45,0,0,1-2.69,1.11.82.82,0,0,1-1-.66.81.81,0,0,1,.56-.93h0a6.26,6.26,0,0,0,2-.93,2.55,2.55,0,0,0,1-1.57,4,4,0,0,0,0-1,5,5,0,0,0-.07-.54,3.37,3.37,0,0,0-.12-.48,4.79,4.79,0,0,0-.46-1,8.73,8.73,0,0,0-.68-.92l0-.05a.41.41,0,0,1,.46-.65"/><path class="cls-7" d="M92.86,178.83a4,4,0,0,1,1.23.77,4.43,4.43,0,0,1,.91,1.2,5,5,0,0,1,.28.73q.09.36.15.72a5.16,5.16,0,0,1,0,1.52,4.13,4.13,0,0,1-.54,1.52,4.2,4.2,0,0,1-1.08,1.18,6.47,6.47,0,0,1-2.68,1.11.82.82,0,0,1-1-.66.81.81,0,0,1,.56-.93h0a6.3,6.3,0,0,0,2-.93,2.52,2.52,0,0,0,1-1.57,3.62,3.62,0,0,0,.05-1,5,5,0,0,0-.07-.54,3.37,3.37,0,0,0-.12-.48,4.31,4.31,0,0,0-.46-1,7.53,7.53,0,0,0-.68-.92l0-.05a.41.41,0,0,1,.06-.58.43.43,0,0,1,.41-.07"/><path class="cls-7" d="M85.9,188.49c-4.45,0-9.15-.62-11.37-3.38s-2.19-7.36-2.14-13.19.11-13-2-20.81l2.71-.75c2.25,8.15,2.19,15.6,2.13,21.59,0,5.26-.07,9.42,1.52,11.4,2.39,3,11,2.35,15.08,2.06l1.68-.12a3.59,3.59,0,0,0,3-1.42,4.06,4.06,0,0,0,.27-3.45,6,6,0,0,0-3.22-3.27,1.4,1.4,0,0,1-.84-1.81l0-.05c4.36-10.51,7.08-30.2,6-37.79l2.79-.39c1.08,7.63-1.49,26.92-5.72,38a8.54,8.54,0,0,1,3.61,4.28,6.84,6.84,0,0,1-.57,6,6.25,6.25,0,0,1-5.22,2.69c-.46,0-1,.06-1.63.11C90.25,188.34,88.1,188.49,85.9,188.49Z"/><path class="cls-3" d="M62.36,92.59l-3.14,7.14-2.9,6.6-4.19,9.5C28.11,114,6.47,97.69,4.08,89.34,2.55,84,5.65,77,8.3,74.43a2.28,2.28,0,0,1,.22-.22c3-2.78,6.61-4.13,17.74,5.21a52.51,52.51,0,0,0,12.32,7.15c7.23,3.16,15.92,5.64,23.78,6"/><path class="cls-4" d="M62.36,92.59l-3.14,7.14c-9.68-2.2-17.32-7.06-20.64-13.16,7.23,3.15,15.93,5.64,23.78,6"/><path class="cls-4" d="M103.29,86.51c-3.32,6.15-11,11-20.77,13.24l-3.14-7.16c7.89-.39,16.65-2.9,23.91-6.08"/><path class="cls-4" d="M90.36,97.22A49.35,49.35,0,0,1,70.92,101a49.21,49.21,0,0,1-19.63-3.87c1.6-1.72,7.88-7.56,19.11-7.56a28.79,28.79,0,0,1,20,7.65"/><path class="cls-4" d="M56.32,106.33l-4.19,9.5C28.11,114,6.47,97.69,4.08,89.34,2.55,84,5.65,77,8.3,74.43a2.28,2.28,0,0,1,.22-.22c3.16,1.27,6.2,2.84,7.51,4.5s.69,5-1.08,11.07c-1.56,5.35,6.46,11.24,15.56,14.56A33.16,33.16,0,0,0,56,103.47Z"/><path class="cls-7" d="M62.32,93.43a64.59,64.59,0,0,1-16.51-3,80.71,80.71,0,0,1-7.88-2.9,64,64,0,0,1-7.53-3.8,42,42,0,0,1-3.54-2.37c-.29-.22-.58-.43-.85-.66L25.19,80,23.6,78.71c-1.07-.84-2.16-1.65-3.27-2.4a26.6,26.6,0,0,0-3.44-2,10.08,10.08,0,0,0-3.55-1,4.66,4.66,0,0,0-3.14,1c-.24.18-.48.37-.72.59s-.23.22-.35.33-.21.2-.32.32A10.25,10.25,0,0,0,7.68,77,19,19,0,0,0,5,84.27a12.35,12.35,0,0,0,0,3.79c0,.3.12.6.2.9,0,.14.08.28.12.42l.17.42a11.56,11.56,0,0,0,.88,1.67,22.83,22.83,0,0,0,2.4,3.13,46.22,46.22,0,0,0,6,5.44,70.1,70.1,0,0,0,6.75,4.57,77.19,77.19,0,0,0,14.84,6.81,66.89,66.89,0,0,0,15.93,3.3h0a1.12,1.12,0,1,1-.17,2.24,68.53,68.53,0,0,1-16.48-3.41,79.53,79.53,0,0,1-15.27-7,71.85,71.85,0,0,1-7-4.73A49.06,49.06,0,0,1,7.05,96.1a24.3,24.3,0,0,1-2.64-3.44,13.16,13.16,0,0,1-1.05-2c-.08-.18-.14-.36-.21-.54S3,89.74,3,89.55c-.1-.37-.18-.75-.25-1.13a14.63,14.63,0,0,1,0-4.48,21.31,21.31,0,0,1,3.07-8.16A12.48,12.48,0,0,1,7.16,74c.13-.15.28-.29.41-.42L8,73.19a10.32,10.32,0,0,1,.88-.73A7.28,7.28,0,0,1,11,71.34a6.74,6.74,0,0,1,2.44-.3,9.44,9.44,0,0,1,2.3.43,13.79,13.79,0,0,1,2.08.81,28,28,0,0,1,3.74,2.16c1.18.78,2.31,1.63,3.42,2.5.54.43,1.09.87,1.63,1.32l.79.64c.25.22.52.41.79.61,1.07.8,2.2,1.53,3.36,2.23a77.18,77.18,0,0,0,14.87,6.71c1.29.43,2.6.83,3.91,1.18s2.64.69,4,1a55,55,0,0,0,8.07,1.14h0a.86.86,0,0,1,.79.91.84.84,0,0,1-.87.78"/><path class="cls-3" d="M19.3,73.91C17.58,72.31,13.63,63.2,8.56,64c-5.29.83-4,9.13.31,11.87"/><g class="cls-9"><path class="cls-3" d="M19.3,73.91l-.8.15c-2.06-3.13-5.39-8.8-9.44-8.16-2.86.45-3.79,3.1-3.35,5.87C4.44,68.43,5,64.55,8.55,64c5.08-.8,9,8.31,10.75,9.91"/></g><path class="cls-7" d="M8.86,77.28a1.35,1.35,0,0,1-.75-.23A10.33,10.33,0,0,1,3.85,67a5.27,5.27,0,0,1,4.48-4.37c4.67-.74,8.11,4.57,10.38,8.08a17.39,17.39,0,0,0,1.55,2.19,1.41,1.41,0,0,1-1.92,2.06h0a15.19,15.19,0,0,1-2-2.72c-1.77-2.72-4.72-7.28-7.58-6.83A2.48,2.48,0,0,0,6.6,67.55a7.55,7.55,0,0,0,3,7.13,1.41,1.41,0,0,1,.43,1.95,1.43,1.43,0,0,1-1.19.65Z"/><path class="cls-3" d="M15,77.77c0,4.42-2.23,13.89-7.78,13.59C3.69,91.17,2,88.4,1.51,85,.77,79.09,3.86,71.28,8.62,71.12a6.27,6.27,0,0,1,4.72,1.8A6.69,6.69,0,0,1,15,77.77"/><path class="cls-4" d="M15,77.77c0,4.42-2.23,13.89-7.78,13.59C3.69,91.17,2,88.4,1.51,85c.34.53,2.47,3.63,5.7,2.1,4.64-2.19-4.45-7,.17-13.18,1.47-2,3.73-1.86,6-1A6.69,6.69,0,0,1,15,77.77"/><path class="cls-7" d="M7.43,92.77H7.09C2.65,92.52-.06,88.77,0,83c.07-6.25,3.37-13.09,8.58-13.25h0a7.75,7.75,0,0,1,5.6,2,8,8,0,0,1,2.18,6c0,3.59-1.3,10.07-4.64,13.2A6.14,6.14,0,0,1,7.43,92.77ZM8.67,72.53h0c-3.28.11-5.8,5.62-5.85,10.47,0,1.57.25,6.73,4.42,7a3.34,3.34,0,0,0,2.55-1c2.51-2.35,3.72-8.06,3.75-11.17a5.31,5.31,0,0,0-1.33-4A5,5,0,0,0,8.67,72.53Z"/><path class="cls-3" d="M25.76,79c-2-1.41-8.06-9.08-13.15-7.13C7.18,74,6.86,80.21,9.85,81.77c3.76,2,7.25-2,7.25-2"/><path class="cls-7" d="M25.1,79.92a11,11,0,0,1-1-.84l-.83-.79c-.55-.53-1.09-1.05-1.64-1.55a25.89,25.89,0,0,0-3.41-2.68,8,8,0,0,0-3.68-1.38,4.29,4.29,0,0,0-.88,0l-.42.1-.43.16a6.92,6.92,0,0,0-1.67,1,5.55,5.55,0,0,0-1.91,3.14,3.84,3.84,0,0,0,.63,3.23,3.07,3.07,0,0,0,.26.25l.15.1.07.05.1,0a3.5,3.5,0,0,0,.81.32,4,4,0,0,0,1.78.06,8.73,8.73,0,0,0,3.62-1.82l0,0a.56.56,0,0,1,.79.1.57.57,0,0,1,0,.68,8.49,8.49,0,0,1-1.73,1.76,7.13,7.13,0,0,1-2.26,1.2,5.54,5.54,0,0,1-2.72.17,5.15,5.15,0,0,1-1.33-.42l-.16-.07-.18-.09-.33-.21a4.72,4.72,0,0,1-.59-.5,5.11,5.11,0,0,1-1.32-2.59,6.61,6.61,0,0,1,0-2.73,7.9,7.9,0,0,1,2.79-4.43A8.63,8.63,0,0,1,12,70.91a4.77,4.77,0,0,1,.64-.23,5.2,5.2,0,0,1,.68-.17,5.87,5.87,0,0,1,1.39-.08,8.09,8.09,0,0,1,2.56.59,13.84,13.84,0,0,1,2.2,1.13,27.18,27.18,0,0,1,3.74,2.93c.57.52,1.13,1,1.67,1.58l.81.77a7.89,7.89,0,0,0,.76.65h0a1.12,1.12,0,0,1,.22,1.58,1.13,1.13,0,0,1-1.55.24Z"/><path class="cls-3" d="M79.37,92.59l6,13.74,4.18,9.5c24-1.82,45.66-18.14,48.05-26.49,1.53-5.35-1.57-12.36-4.21-14.91l-.23-.22c-3-2.78-6.6-4.13-17.73,5.2-6.88,5.77-22.72,12.53-36.11,13.18"/><path class="cls-4" d="M103.29,86.51c-3.32,6.15-11,11-20.77,13.24l-3.14-7.16c7.89-.39,16.65-2.9,23.91-6.08"/><path class="cls-4" d="M85.42,106.33l4.18,9.5c24-1.82,45.66-18.14,48.05-26.49,1.53-5.35-1.57-12.36-4.21-14.91l-.23-.22c-3.16,1.27-6.2,2.84-7.51,4.5s-.68,5,1.08,11.07c1.56,5.35-6.46,11.24-15.55,14.56a33.18,33.18,0,0,1-25.5-.87Z"/><path class="cls-7" d="M79.33,91.74A56.19,56.19,0,0,0,87.4,90.6c1.34-.28,2.66-.61,4-1s2.62-.75,3.92-1.18a77.09,77.09,0,0,0,14.86-6.71c1.16-.7,2.29-1.43,3.36-2.23.27-.2.54-.4.79-.61l.79-.64c.54-.45,1.09-.89,1.64-1.32,1.1-.87,2.23-1.71,3.41-2.5a28,28,0,0,1,3.74-2.16,15,15,0,0,1,2.08-.82,9.92,9.92,0,0,1,2.3-.42,6.56,6.56,0,0,1,2.45.3,7.35,7.35,0,0,1,2.15,1.12c.31.23.61.48.89.73s.27.25.4.38a5.48,5.48,0,0,1,.41.42A13.32,13.32,0,0,1,136,75.78a21.38,21.38,0,0,1,2,3.92A20.85,20.85,0,0,1,139,83.94a14.63,14.63,0,0,1,0,4.48c-.07.38-.15.76-.25,1.13,0,.18-.12.38-.18.56s-.13.37-.21.55a14.06,14.06,0,0,1-1,2,25.75,25.75,0,0,1-2.65,3.44,48.26,48.26,0,0,1-6.27,5.71,70.1,70.1,0,0,1-7,4.73,79.57,79.57,0,0,1-15.27,7A69,69,0,0,1,89.68,117a1.13,1.13,0,0,1-.17-2.25h0a66.41,66.41,0,0,0,15.93-3.3,77.19,77.19,0,0,0,14.84-6.81A68.32,68.32,0,0,0,127,100a46.22,46.22,0,0,0,6-5.44,22.24,22.24,0,0,0,2.4-3.13,10.65,10.65,0,0,0,.88-1.67c.07-.14.11-.28.17-.42s.09-.27.13-.42c.08-.3.14-.6.19-.9a12.28,12.28,0,0,0,0-3.78,18.68,18.68,0,0,0-1-3.77A18.9,18.9,0,0,0,134.06,77a11.85,11.85,0,0,0-1.14-1.5c-.1-.11-.2-.21-.32-.32l-.35-.33c-.24-.21-.47-.41-.72-.59a4.55,4.55,0,0,0-3.14-1,10,10,0,0,0-3.54,1,26.42,26.42,0,0,0-3.44,2c-1.12.75-2.21,1.56-3.28,2.4-.53.43-1.06.85-1.59,1.29l-.81.67c-.28.23-.57.44-.85.66-1.14.84-2.33,1.63-3.55,2.36a63.82,63.82,0,0,1-7.52,3.8,81.86,81.86,0,0,1-7.89,2.9,64.17,64.17,0,0,1-16.51,3.05.85.85,0,0,1-.87-.82.83.83,0,0,1,.78-.87Z"/><path class="cls-3" d="M122.43,73.91c1.73-1.6,5.67-10.71,10.75-9.91,5.29.83,4,9.13-.31,11.87"/><g class="cls-9"><path class="cls-3" d="M122.43,73.91l.8.15c2.06-3.13,5.39-8.8,9.44-8.16,2.87.45,3.79,3.1,3.36,5.87,1.27-3.34.68-7.22-2.85-7.77-5.08-.8-9,8.31-10.75,9.91"/></g><path class="cls-7" d="M132.87,77.28a1.41,1.41,0,0,1-.76-2.6,7.55,7.55,0,0,0,3-7.13A2.48,2.48,0,0,0,133,65.39c-2.86-.45-5.81,4.11-7.58,6.83a15.19,15.19,0,0,1-2,2.72,1.41,1.41,0,1,1-1.92-2.06A17.39,17.39,0,0,0,123,70.69c2.27-3.51,5.71-8.82,10.38-8.08A5.27,5.27,0,0,1,137.88,67a10.33,10.33,0,0,1-4.26,10.07A1.33,1.33,0,0,1,132.87,77.28Z"/><path class="cls-3" d="M126.78,77.77c0,4.42,2.23,13.89,7.78,13.59,3.48-.19,5.22-3,5.66-6.4.74-5.87-2.35-13.68-7.11-13.84a6.23,6.23,0,0,0-4.71,1.8,6.65,6.65,0,0,0-1.62,4.85"/><path class="cls-4" d="M126.78,77.77c0,4.42,2.23,13.89,7.78,13.59,3.48-.19,5.22-3,5.66-6.4-.34.53-2.47,3.63-5.7,2.1-4.64-2.19,4.45-7-.17-13.18-1.47-2-3.73-1.86-5.95-1a6.65,6.65,0,0,0-1.62,4.85"/><path class="cls-7" d="M134.3,92.77A6.1,6.1,0,0,1,130,91c-3.34-3.13-4.61-9.61-4.64-13.2a7.93,7.93,0,0,1,2.17-6,7.75,7.75,0,0,1,5.6-2h0c5.21.16,8.51,7,8.58,13.25.07,5.8-2.65,9.55-7.09,9.79Zm-1.38-20.24a5,5,0,0,0-3.4,1.25,5.35,5.35,0,0,0-1.33,4c0,3.11,1.25,8.82,3.75,11.17a3.39,3.39,0,0,0,2.55,1c4.17-.23,4.44-5.38,4.43-7-.06-4.85-2.57-10.36-5.86-10.46Z"/><path class="cls-3" d="M116,79c2-1.41,8.06-9.08,13.15-7.13,5.43,2.08,5.75,8.34,2.76,9.9-3.76,2-7.24-2-7.24-2"/><path class="cls-7" d="M115.32,78.09a9.32,9.32,0,0,0,.75-.66l.81-.77c.54-.52,1.1-1,1.68-1.58a27.18,27.18,0,0,1,3.73-2.92,13.11,13.11,0,0,1,2.2-1.14,8.07,8.07,0,0,1,2.56-.58,5.87,5.87,0,0,1,1.39.08,5.17,5.17,0,0,1,.68.16c.23.07.45.16.64.23A9.14,9.14,0,0,1,132,72.22a7.9,7.9,0,0,1,2.79,4.43,6.79,6.79,0,0,1,0,2.73A5.08,5.08,0,0,1,133.51,82a3.19,3.19,0,0,1-.6.5,1.85,1.85,0,0,1-.33.21l-.17.09-.16.08a6.06,6.06,0,0,1-1.33.42,5.71,5.71,0,0,1-2.73-.17,7.56,7.56,0,0,1-2.26-1.2,8.75,8.75,0,0,1-1.72-1.77.56.56,0,0,1,.81-.77l0,0a8.65,8.65,0,0,0,3.62,1.81,4,4,0,0,0,1.78,0,4.05,4.05,0,0,0,.81-.33l.09,0,.08,0,.14-.11a1.55,1.55,0,0,0,.27-.24,3.85,3.85,0,0,0,.63-3.23A5.53,5.53,0,0,0,130.56,74a6.64,6.64,0,0,0-1.66-1l-.43-.16-.42-.1a3.72,3.72,0,0,0-.88,0,8,8,0,0,0-3.68,1.38,25.79,25.79,0,0,0-3.42,2.68c-.54.5-1.08,1-1.63,1.54l-.83.8c-.31.29-.64.57-1,.83a1.13,1.13,0,0,1-1.37-1.79l0,0h0Z"/><path class="cls-3" d="M97,147.72c-1.85,2.55-6.45,6.3-13.9,8.43a46.88,46.88,0,0,1-24.73,0C51,154,46.44,150.25,44.61,147.72c-11-16.56,2.25-42.85,5.55-48.86.45-.81.71-1.25.71-1.25s6.36-8,19.53-8,20.33,8,20.33,8,.2.33.54,1c3,5.36,16.93,32.3,5.73,49.16"/><path class="cls-4" d="M90.36,97.22A49.35,49.35,0,0,1,70.92,101a49.21,49.21,0,0,1-19.63-3.87c1.6-1.72,7.88-7.56,19.11-7.56a28.79,28.79,0,0,1,20,7.65"/><path class="cls-4" d="M97,147.72c-1.85,2.55-6.45,6.3-13.9,8.43a46.88,46.88,0,0,1-24.73,0C51,154,46.44,150.25,44.61,147.72c-3.85-5.78-4.73-12.75-4.11-19.63a26.32,26.32,0,0,0,4.11,12.08c1.83,2.53,6.39,6.25,13.76,8.39a44.35,44.35,0,0,0,12.43,1.67,44.86,44.86,0,0,0,12.3-1.63c7.45-2.13,12.05-5.88,13.9-8.43a26.36,26.36,0,0,0,4.11-12.08c.62,6.88-.27,13.85-4.11,19.63"/><path class="cls-7" d="M44.14,148a10.11,10.11,0,0,1-1-1,14.16,14.16,0,0,1-.84-1.19c-.25-.41-.46-.84-.68-1.28s-.37-.89-.56-1.33a28.33,28.33,0,0,1-1.51-5.57,34.16,34.16,0,0,1-.44-5.71,44.93,44.93,0,0,1,.41-5.68,60.9,60.9,0,0,1,2.61-11A71.55,71.55,0,0,1,46.49,105a.55.55,0,0,1,.76-.23.57.57,0,0,1,.27.69h0c-1.3,3.44-2.49,6.91-3.48,10.42a66.51,66.51,0,0,0-2.17,10.66,46.09,46.09,0,0,0-.31,5.38,36.45,36.45,0,0,0,.38,5.33,28.44,28.44,0,0,0,1.25,5.15c.16.41.3.83.47,1.23s.34.81.5,1.23.33.82.48,1.25a8.37,8.37,0,0,1,.43,1.31l0,0a.6.6,0,0,1-.43.71.58.58,0,0,1-.52-.13"/><path class="cls-7" d="M83.25,156.69a29.09,29.09,0,0,1-6.15,1.71c-1,.19-2.11.29-3.18.39s-2.13.12-3.19.12-2.13,0-3.2-.13-2.12-.21-3.17-.4a29.13,29.13,0,0,1-6.15-1.73.55.55,0,0,1-.31-.73.57.57,0,0,1,.62-.35h0c2,.35,4.07.64,6.1.82,1,.08,2,.17,3,.2s2,.08,3.06.07,2,0,3.06-.06,2-.12,3-.2c2-.18,4.06-.45,6.1-.79h0a.57.57,0,0,1,.65.47.56.56,0,0,1-.35.61"/><path class="cls-7" d="M95.11,105a58.83,58.83,0,0,1,4.48,10.26c.59,1.78,1.09,3.59,1.52,5.42a50.33,50.33,0,0,1,1,5.56,38.83,38.83,0,0,1-.06,11.39,29,29,0,0,1-1.52,5.56A11.8,11.8,0,0,1,97.47,148a.59.59,0,0,1-.83-.05.6.6,0,0,1-.12-.56h0c.56-1.78,1.28-3.36,1.89-5a26.87,26.87,0,0,0,1.25-5.15,41.65,41.65,0,0,0,0-10.7q-.33-2.69-.89-5.35c-.37-1.78-.84-3.53-1.33-5.29-1-3.5-2.19-7-3.39-10.44h0a.57.57,0,0,1,.35-.72.55.55,0,0,1,.67.26"/><path class="cls-3" d="M84.54,15.21C93.74,6,105-.65,109.59,2c5.16,3,5.15,28.47.21,37.76Z"/><path class="cls-7" d="M110.17,42.12,82.5,15.23l1-1C92.6,5.07,104.72-2.47,110.31.76c4.11,2.39,4.59,13.21,4.6,17.76,0,7.05-1,16.52-3.85,21.92ZM86.59,15.2l22.74,22.11c1.7-4.38,2.74-11.45,2.72-18.79,0-8.84-1.62-14.37-3.18-15.28C105.79,1.46,96.24,5.85,86.59,15.2Z"/><path class="cls-5" d="M57,15.21C47.78,6,36.51-.65,31.93,2c-5.16,3-5.15,28.47-.21,37.76Z"/><g class="cls-10"><path class="cls-3" d="M57,15.21l-1.36,1.32c-9-8.66-19.53-14.64-23.93-12.1-1.74,1-2.9,4.61-3.47,9.28C28.66,7.88,29.89,3.18,31.93,2,36.51-.65,47.78,6,57,15.21"/></g><path class="cls-7" d="M31.35,42.12l-.89-1.68C27.58,35,26.58,25.57,26.6,18.52c0-4.55.5-15.37,4.61-17.76C36.8-2.47,48.91,5.07,58,14.2l1,1Zm3-39.26a3.39,3.39,0,0,0-1.75.39c-1.56.89-3.15,6.44-3.18,15.28,0,7.33,1,14.4,2.71,18.79L54.93,15.2C46.69,7.22,38.53,2.86,34.4,2.86Z"/><path class="cls-3" d="M117.94,70.62a20.2,20.2,0,0,1-3.18,7.94c-5.14,7.67-17.24,15.32-44,17.38-27-2.08-39.11-9.89-44.14-17.66a20,20,0,0,1-3-7.66c-1-5.9.81-10.82,1-12.6C25.89,47.21,28.74,8.94,70.8,8.94c21,0,32.26,9.57,38.38,20.49s7.14,23.18,7.76,28.59c.19,1.78,2,6.7,1,12.6"/><path class="cls-4" d="M114.76,78.56c-5.14,7.67-17.24,15.32-44,17.38-27-2.08-39.11-9.89-44.14-17.66,0,0,7.61,5.49,22.16,9a93.27,93.27,0,0,0,44.19,0c12.58-3.07,20-7.59,21.75-8.76"/><path class="cls-3" d="M69,16.82A27.5,27.5,0,0,1,27.78,40.67C31.91,26.61,41.89,10.17,67.83,9A27.17,27.17,0,0,1,69,16.82"/><path class="cls-5" d="M69,16.82A27.5,27.5,0,0,1,27.78,40.67C31.91,26.61,41.89,10.17,67.83,9A27.17,27.17,0,0,1,69,16.82"/><g class="cls-10"><path class="cls-3" d="M68.54,12.05C48.13,10.81,34.71,27.44,29.28,41.47c-.51-.25-1-.52-1.51-.8C31.91,26.61,41.89,10.17,67.83,9a28.53,28.53,0,0,1,.71,3"/></g><path class="cls-7" d="M111.35,32.41c.25.39.48.79.72,1.2l.34.6.31.62c.21.42.41.84.61,1.26s.36.85.53,1.28.34.86.49,1.3.31.88.45,1.32c.26.89.53,1.77.76,2.67a87.77,87.77,0,0,1,2.09,10.86q.18,1.36.33,2.73l.16,1.36a3,3,0,0,0,0,.33l0,.27c0,.2.07.4.13.62.18.87.4,1.78.57,2.7s.33,1.86.42,2.81a24.42,24.42,0,0,1,0,5.73,20.48,20.48,0,0,1-1.54,5.58,23.14,23.14,0,0,1-1.31,2.58c-.26.4-.5.82-.79,1.21l-.41.59-.44.57a26,26,0,0,1-4,4.08,34.24,34.24,0,0,1-4.62,3.24,47,47,0,0,1-5,2.53,54.51,54.51,0,0,1-5.21,2c-.88.27-1.76.55-2.66.78L92,93.55l-1.35.31a75.61,75.61,0,0,1-10.89,1.68.55.55,0,0,1-.6-.52.56.56,0,0,1,.45-.59c3.55-.72,7.08-1.51,10.55-2.48,1.74-.47,3.44-1,5.14-1.6s3.36-1.24,5-2A46.81,46.81,0,0,0,105,85.91a33,33,0,0,0,4.27-3.07,25,25,0,0,0,3.6-3.75l.39-.52.37-.53c.25-.35.46-.72.69-1.08a19.6,19.6,0,0,0,1.15-2.29,17.19,17.19,0,0,0,.84-2.41,18.24,18.24,0,0,0,.49-2.51,22.81,22.81,0,0,0,.06-5.16c-.08-.87-.21-1.73-.37-2.6s-.36-1.73-.55-2.64c0-.23-.1-.47-.14-.72l-.06-.4c0-.14,0-.23,0-.35l-.15-1.36c-.09-.9-.19-1.8-.3-2.69-.21-1.8-.47-3.57-.78-5.34s-.67-3.53-1.11-5.26c-.87-3.49-2-6.85-3-10.34h0a.57.57,0,0,1,1-.47"/><path class="cls-7" d="M52.22,11.46a34.68,34.68,0,0,1,4.46-1.69,43.34,43.34,0,0,1,4.63-1.12A47.49,47.49,0,0,1,66,8c1.59-.14,3.17-.2,4.76-.21v2.26h0V7.81c1.59,0,3.18.07,4.77.21a47.49,47.49,0,0,1,4.73.63,40.75,40.75,0,0,1,4.64,1.13,33.78,33.78,0,0,1,4.46,1.69.56.56,0,0,1-.39,1h0c-1.49-.42-3-.81-4.48-1.12s-3-.57-4.54-.77-3-.35-4.58-.43-3.07-.14-4.61-.13V7.81h0v2.26c-1.53,0-3.07,0-4.6.13s-3.05.24-4.57.43-3,.45-4.53.77-3,.69-4.48,1.12h0a.57.57,0,0,1-.4-1.06"/><path class="cls-7" d="M61.85,95.54A74,74,0,0,1,51,93.89a60.16,60.16,0,0,1-10.55-3.43,46.85,46.85,0,0,1-5-2.53,35.17,35.17,0,0,1-4.62-3.24,25.67,25.67,0,0,1-4-4.09L26.37,80,26,79.44c-.29-.39-.53-.8-.79-1.21a23.18,23.18,0,0,1-1.32-2.58,21.53,21.53,0,0,1-1-2.73,20,20,0,0,1-.57-2.85,25,25,0,0,1-.05-5.73c.1-1,.24-1.89.42-2.81s.38-1.83.58-2.7c.05-.22.08-.42.12-.62l.05-.27c0-.09,0-.22,0-.33l.16-1.36c.1-.9.22-1.81.34-2.72a86.08,86.08,0,0,1,2.08-10.87c.23-.9.5-1.78.76-2.67q.21-.66.45-1.32c.15-.43.31-.87.49-1.3s.35-.86.53-1.28.4-.84.61-1.26l.31-.62.34-.6c.24-.4.47-.8.73-1.19a.57.57,0,0,1,1,.46h0c-1,3.49-2.15,6.86-3,10.34-.44,1.73-.82,3.49-1.12,5.26s-.57,3.55-.78,5.34c-.11.89-.21,1.79-.3,2.69l-.14,1.36c0,.12,0,.21,0,.35l-.06.4c0,.25-.09.49-.14.72-.19.91-.39,1.77-.55,2.64s-.29,1.73-.38,2.6a22.25,22.25,0,0,0,.07,5.16,18.28,18.28,0,0,0,1.32,4.92A20.49,20.49,0,0,0,27.31,77c.23.36.44.73.69,1.08l.37.53.39.52a25,25,0,0,0,3.6,3.74,32,32,0,0,0,4.27,3.07,43.88,43.88,0,0,0,4.71,2.46c1.62.75,3.3,1.37,5,2,.85.28,1.69.58,2.56.84l1.28.4,1.3.36c3.46,1,7,1.76,10.55,2.5a.57.57,0,0,1-.16,1.12"/><path class="cls-7" d="M76.46,72.94a11,11,0,0,0-1.75,4.21c-.42,1.46-.91,2.71-2.5,3.27a4,4,0,0,1-2.59,0c-1.58-.56-2.08-1.8-2.49-3.25a11.34,11.34,0,0,0-1.76-4.23l5.54-2Z"/><path class="cls-11" d="M74.71,77.15c-.42,1.46-.91,2.7-2.5,3.27a4,4,0,0,1-2.59,0c-1.58-.56-2.08-1.8-2.49-3.25a3.75,3.75,0,0,1,3.81.3,3.75,3.75,0,0,1,3.77-.32"/><path class="cls-7" d="M72.54,75.93l-.48,1a1.6,1.6,0,0,0-1.12,1.53,1.6,1.6,0,0,0-1.12-1.53l-.48-1,.65.21,1,.28,1-.28Z"/><path class="cls-7" d="M70.91,81.69a4.83,4.83,0,0,1-1.64-.28C67,80.6,66.43,78.64,66,76.9a8.87,8.87,0,0,0-1.42-3.31,1.06,1.06,0,0,1,1.66-1.31A10.8,10.8,0,0,1,68,76.35c.47,1.73.77,2.65,2,3.07a2.88,2.88,0,0,0,1.88,0c1.21-.42,1.51-1.34,2-3.07a10.64,10.64,0,0,1,1.8-4.07,1.06,1.06,0,0,1,1.48-.17,1,1,0,0,1,.17,1.48,9,9,0,0,0-1.41,3.31c-.47,1.74-1,3.7-3.31,4.51A4.89,4.89,0,0,1,70.91,81.69Z"/><path class="cls-7" d="M45.74,35c-.44-.69,2.49-6.82,8-5,2,.65,2.17,2.58.63,3s-2.11.08-4.39.87c-1.28.45-3.78,1.83-4.22,1.14"/><path class="cls-7" d="M95.74,35c.44-.69-2.48-6.82-8-5-2,.65-2.16,2.58-.63,3s2.13.08,4.39.87c1.29.45,3.79,1.83,4.22,1.14"/><path class="cls-12" d="M109.8,26.7c-.32,2.25-.68,3.72-.9,3.72-.5,0-3-4.63-6.64-8.85-1.13-1.32-2.26-2.52-3.27-3.49-1.65-1.57-1.31-4,.18-5.68,2.37-2.73,7.42-5.58,9.43-5.38.74.07,1.36,2.35,1.66,5.74.07.88.13,1.83.16,2.84a69.66,69.66,0,0,1-.62,11.1"/><path class="cls-13" d="M109.31,26.7c-.32,2.25-.68,3.72-.9,3.72-.5,0-3-4.63-6.64-8.85-1.13-1.32-2.27-2.52-3.28-3.49-1.64-1.57-1.3-4,.19-5.68,2.37-2.73,7.42-5.58,9.42-5.38.75.07,1.37,2.35,1.66,5.74,0,0-1.37-2.09-2.77-2-1.15.07-4.65,2.23-4.79,4.3-.2,3.21,2.11,2.84,4.43,9.65.69,2.05,1.72,2.49,2.68,2"/><path class="cls-7" d="M110.88,15.57a67.53,67.53,0,0,1-.33,7.25c-.12,1.2-.26,2.4-.43,3.59-.09.6-.18,1.2-.28,1.8a18.64,18.64,0,0,1-.41,1.83,3.16,3.16,0,0,1-.2.54l0,.09-.07.11-.06.07-.08.09-.07.06-.09.06a.94.94,0,0,1-.32.11h-.14l-.09,0-.19,0,0,0,0,0-.08,0-.07-.05,0,0-.08-.07a5.14,5.14,0,0,1-.38-.42l-.29-.39c-.36-.5-.7-1-1-1.48-.67-1-1.35-2-2-2.91a49.71,49.71,0,0,0-4.58-5.35c-.41-.42-.82-.83-1.25-1.23l-.32-.3c-.12-.13-.26-.26-.38-.41a4.45,4.45,0,0,1-1-3.19,5.66,5.66,0,0,1,.57-2.1,6.58,6.58,0,0,1,.55-.92l.32-.42a3.81,3.81,0,0,1,.33-.36A15.89,15.89,0,0,1,99.55,10a24.25,24.25,0,0,1,3-2.19c.54-.33,1.1-.63,1.66-.9a14.88,14.88,0,0,1,1.81-.73,8.76,8.76,0,0,1,1-.25l.57-.07h.59l.21,0a1.51,1.51,0,0,1,.35.14l.26.17c.06.06.13.12.18.18l.14.16a3.44,3.44,0,0,1,.35.58,6.74,6.74,0,0,1,.37,1,20.71,20.71,0,0,1,.6,3.72c.11,1.23.16,2.44.18,3.65m-1.9.06c-.06-1.17-.15-2.34-.29-3.49A20.75,20.75,0,0,0,108,8.82a4.77,4.77,0,0,0-.26-.66.76.76,0,0,0-.12-.19h0l0,0,.07,0,.15.06h-.1l-.32.05a6.38,6.38,0,0,0-.72.19,16.26,16.26,0,0,0-3,1.41A22.44,22.44,0,0,0,101,11.7a14.32,14.32,0,0,0-1.21,1.13l-.28.29-.23.28a4.9,4.9,0,0,0-.38.62,3.73,3.73,0,0,0-.42,1.31,2.55,2.55,0,0,0,.19,1.25,2.33,2.33,0,0,0,.32.55l.22.26.32.32c.43.44.85.88,1.26,1.33.82.9,1.6,1.81,2.36,2.76s1.47,1.93,2.17,2.92,1.36,2,2,3c.33.49.66,1,1,1.46.08.12.16.23.25.34a2.25,2.25,0,0,0,.21.24h0l0,0h-.08l-.12,0h-.18a.79.79,0,0,0-.26.08l-.08.05,0,0,0,.05,0,0v0h0a1.82,1.82,0,0,0,.11-.3,16,16,0,0,0,.36-1.67c.09-.57.18-1.16.25-1.74.14-1.17.24-2.34.31-3.52a66.51,66.51,0,0,0,.07-7.06"/><path class="cls-12" d="M32.81,26.43c.31,2.25.67,3.73.89,3.73.51,0,3-4.64,6.64-8.86,1.14-1.31,2.27-2.51,3.28-3.48,1.64-1.58,1.3-4-.19-5.68C41.07,9.41,36,6.55,34,6.75c-.75.07-1.36,2.35-1.66,5.74-.08.88-.13,1.84-.16,2.85a68.44,68.44,0,0,0,.62,11.09"/><path class="cls-13" d="M32.31,26.43c.32,2.25.68,3.73.9,3.73.5,0,3-4.64,6.64-8.86C41,20,42.12,18.79,43.13,17.82c1.64-1.58,1.3-4-.19-5.68-2.37-2.73-7.42-5.59-9.42-5.39-.75.07-1.37,2.35-1.66,5.75,0,0,1.37-2.1,2.77-2,1.15.07,4.65,2.22,4.79,4.29.2,3.21-2.11,2.84-4.43,9.65-.69,2.05-1.72,2.49-2.68,2"/><path class="cls-7" d="M32.65,15.36a69.45,69.45,0,0,0,.06,7.07c.07,1.18.18,2.35.31,3.52.07.59.16,1.17.26,1.74a15.31,15.31,0,0,0,.36,1.66,1.6,1.6,0,0,0,.1.31,0,0,0,0,0,0,0l0,0v0l0-.05-.05,0-.07-.05a.77.77,0,0,0-.27-.08.36.36,0,0,0-.11,0h-.06l-.13,0h0l0,0h0l.21-.25.24-.33c.34-.47.66-1,1-1.47.67-1,1.33-2,2-3s1.42-2,2.17-2.92,1.55-1.87,2.37-2.77c.41-.45.82-.89,1.25-1.32l.32-.33.22-.25a3.08,3.08,0,0,0,.33-.55,2.59,2.59,0,0,0,.18-1.26,3.58,3.58,0,0,0-.41-1.31,6.33,6.33,0,0,0-.39-.61,3.11,3.11,0,0,0-.23-.28,3.65,3.65,0,0,0-.27-.3c-.39-.4-.8-.77-1.22-1.13a22.37,22.37,0,0,0-2.8-1.92,16.32,16.32,0,0,0-3-1.42,6.38,6.38,0,0,0-.72-.19l-.32,0h-.19l.1,0,.14-.06.07,0,0,0h0a1.22,1.22,0,0,0-.12.19,4.77,4.77,0,0,0-.26.66,21,21,0,0,0-.66,3.32c-.14,1.14-.23,2.32-.29,3.49m-1.9-.06c0-1.21.07-2.42.18-3.65a20.85,20.85,0,0,1,.6-3.72,7.17,7.17,0,0,1,.37-1,3.44,3.44,0,0,1,.35-.58l.14-.16L32.56,6a1.54,1.54,0,0,1,.61-.32l.21,0H34c.2,0,.38,0,.57.06a7.13,7.13,0,0,1,1,.26,14.07,14.07,0,0,1,1.8.72,16.56,16.56,0,0,1,1.66.9,23.54,23.54,0,0,1,3.05,2.19,15.89,15.89,0,0,1,1.38,1.34l.33.36a4.23,4.23,0,0,1,.32.42,6.54,6.54,0,0,1,.56.91,5.71,5.71,0,0,1,.57,2.1,4.49,4.49,0,0,1-1,3.2l-.39.4-.32.3c-.42.4-.84.81-1.25,1.23a50.62,50.62,0,0,0-4.56,5.36c-.7,1-1.38,1.92-2,2.91l-1,1.49-.29.38a3.79,3.79,0,0,1-.38.42l-.08.07,0,0-.07.05-.07,0,0,0-.06,0-.18.05h-.1a.33.33,0,0,1-.14,0,.81.81,0,0,1-.31-.1l-.1-.07-.07-.05a.39.39,0,0,1-.08-.1.34.34,0,0,1-.06-.06.75.75,0,0,0-.07-.12.36.36,0,0,1,0-.09,3.39,3.39,0,0,1-.2-.53,16.6,16.6,0,0,1-.4-1.83c-.11-.6-.2-1.2-.28-1.8-.18-1.2-.32-2.4-.44-3.6a64.74,64.74,0,0,1-.32-7.24"/><path class="cls-14" d="M110.36,70.76c0,3-3.28,5.53-7.31,5.53s-7.32-2.47-7.32-5.53S99,65.23,103,65.23s7.32,2.47,7.32,5.53"/><path class="cls-14" d="M45.87,70.76c0,3-3.28,5.53-7.31,5.53s-7.31-2.47-7.31-5.53,3.27-5.53,7.31-5.53,7.31,2.47,7.31,5.53"/><path class="cls-7" d="M113.61,63.77A16.81,16.81,0,0,1,117.4,61a22.68,22.68,0,0,1,4.31-1.83c.37-.12.76-.21,1.13-.31l.57-.15.57-.13,1.15-.22,1.15-.16a11.37,11.37,0,0,1,1.16-.11l1.17-.07h1.16l1.16,0a.38.38,0,0,1,.37.39.37.37,0,0,1-.35.36h0l-1.13.06-.57,0-.28,0-.28,0c-.75.09-1.5.12-2.24.27l-1.11.19-1.1.24-.55.13-.54.15c-.36.11-.72.19-1.07.32a28.88,28.88,0,0,0-4.14,1.72,22.49,22.49,0,0,0-3.78,2.37l0,0a.37.37,0,0,1-.53-.07.38.38,0,0,1,0-.49"/><path class="cls-7" d="M114.14,69.77a18,18,0,0,1,4.11-.53,19.17,19.17,0,0,1,4.14.38,17.69,17.69,0,0,1,2,.54,13.58,13.58,0,0,1,1.93.81,12.75,12.75,0,0,1,3.39,2.43.38.38,0,0,1-.5.56h0a14,14,0,0,0-3.31-2.07c-.3-.15-.6-.26-.91-.38s-.61-.22-.92-.31a18.34,18.34,0,0,0-1.91-.47,22.27,22.27,0,0,0-3.92-.4,28.94,28.94,0,0,0-4,.18h0a.37.37,0,0,1-.14-.73"/><path class="cls-7" d="M27.47,64.31a22.49,22.49,0,0,0-3.78-2.37,27.78,27.78,0,0,0-4.14-1.72c-.35-.13-.71-.21-1.07-.32l-.54-.16c-.18-.05-.37-.08-.55-.12l-1.1-.25-1.11-.18c-.74-.15-1.49-.18-2.24-.27l-.28,0h-.28l-.57,0-1.13-.06h0a.38.38,0,0,1-.35-.4.37.37,0,0,1,.37-.35l1.16,0H13l1.17.07a11.37,11.37,0,0,1,1.16.11l1.16.15,1.14.23c.2,0,.39.07.58.12l.56.16c.38.1.76.19,1.13.31A22.41,22.41,0,0,1,24.2,61,17,17,0,0,1,28,63.76a.39.39,0,0,1,0,.53.37.37,0,0,1-.5,0Z"/><path class="cls-7" d="M27.3,70.5a28.94,28.94,0,0,0-3.95-.18,23.35,23.35,0,0,0-3.92.39,15.69,15.69,0,0,0-1.91.48c-.31.09-.61.2-.92.31s-.61.23-.91.37A14.41,14.41,0,0,0,12.38,74h0a.37.37,0,0,1-.53,0,.36.36,0,0,1,0-.51A12.78,12.78,0,0,1,15.26,71a14.37,14.37,0,0,1,1.94-.8,14.21,14.21,0,0,1,2-.54,18.61,18.61,0,0,1,4.14-.38,17,17,0,0,1,4.12.53.37.37,0,0,1,.27.45.36.36,0,0,1-.41.28Z"/><path class="cls-7" d="M75,65.67c0,1.2-1.82,2.77-4.13,3.35-2.31-.58-4.13-2.15-4.13-3.35,0-1,3.1-1.28,4.13-1.28S75,64.63,75,65.67"/><g class="cls-9"><path class="cls-3" d="M72.77,65.37c0,.36-.86.83-2,1-1.09-.18-2-.65-2-1s1.47-.39,2-.39,2,.07,2,.39"/></g><path class="cls-3" d="M78.59,69.55a3.12,3.12,0,0,1-1.36,3.68c-2.11,1.2-4.59-.36-5.76-1.27a1.75,1.75,0,0,1-.67-1.37h0A1.72,1.72,0,0,1,70.13,72c-1.17.91-3.65,2.47-5.76,1.27A3.11,3.11,0,0,1,63,69.55"/><path class="cls-4" d="M77.23,73.23c-2.11,1.2-4.59-.36-5.76-1.27a1.75,1.75,0,0,1-.67-1.37A1.75,1.75,0,0,1,70.13,72c-1.17.91-3.65,2.47-5.76,1.27A3.11,3.11,0,0,1,63,69.55h0a2.86,2.86,0,0,0,1.35,1.58c2.11,1.2,4.59-.36,5.76-1.27a1.47,1.47,0,0,0,.3-.31h.74a1.47,1.47,0,0,0,.3.31c1.17.91,3.65,2.47,5.76,1.27a2.86,2.86,0,0,0,1.35-1.58h0a3.11,3.11,0,0,1-1.35,3.68"/><path class="cls-7" d="M79,69.42a3.5,3.5,0,0,1,.37,2.08,3.29,3.29,0,0,1-1.08,2,4.2,4.2,0,0,1-2,1,4.93,4.93,0,0,1-2.17-.14,8.15,8.15,0,0,1-1.88-.79,9,9,0,0,1-.84-.52L71,72.73l-.12-.1-.13-.11a2,2,0,0,1-.24-.26A2.67,2.67,0,0,1,69.9,71a2.07,2.07,0,0,1,0-.35V68.13a1,1,0,1,1,1.9,0h0v2.52a2.07,2.07,0,0,1,0,.35,2.77,2.77,0,0,1-.56,1.26l-.24.26a.69.69,0,0,1-.13.11l-.12.1-.4.29c-.27.19-.55.36-.83.53a8.66,8.66,0,0,1-1.89.78,4.92,4.92,0,0,1-2.17.14,4.16,4.16,0,0,1-2-1,3.25,3.25,0,0,1-1.09-2,3.54,3.54,0,0,1,.37-2.09.43.43,0,0,1,.58-.17.42.42,0,0,1,.22.38v.07a4.26,4.26,0,0,0,.22,1.5,2.16,2.16,0,0,0,.77,1,2.52,2.52,0,0,0,1.23.53,3.19,3.19,0,0,0,1.42-.14A6.46,6.46,0,0,0,68.51,72a8.18,8.18,0,0,0,.69-.45l.33-.25.06-.05,0,0a.27.27,0,0,0,.07-.08.77.77,0,0,0,.17-.38V68.13h1.9v2.58a.79.79,0,0,0,.24.46s0,0,0,0l0,.05.34.24a6.36,6.36,0,0,0,.69.46,6.26,6.26,0,0,0,1.44.66,3.21,3.21,0,0,0,1.42.14,2.58,2.58,0,0,0,1.24-.52,2.26,2.26,0,0,0,.77-1,4,4,0,0,0,.21-1.5v-.07a.42.42,0,0,1,.42-.43.4.4,0,0,1,.38.22"/><ellipse class="cls-7" cx="53.06" cy="59.13" rx="7.5" ry="9.56"/><ellipse class="cls-3" cx="55.39" cy="56.02" rx="2.13" ry="3.11" transform="translate(-15.53 21.71) rotate(-19.51)"/><g class="cls-15"><ellipse class="cls-3" cx="52.71" cy="64.66" rx="1.83" ry="2.37" transform="matrix(0.3, -0.95, 0.95, 0.3, -24.72, 95.72)"/></g><ellipse class="cls-7" cx="88.45" cy="59.13" rx="7.5" ry="9.56"/><ellipse class="cls-3" cx="86.12" cy="56.02" rx="3.11" ry="2.13" transform="translate(4.55 118.49) rotate(-70.49)"/><g class="cls-15"><ellipse class="cls-3" cx="88.8" cy="64.65" rx="2.37" ry="1.83" transform="translate(-15.23 29.39) rotate(-17.33)"/></g></svg>