<?xml version="1.0" encoding="utf-8"?>
<!-- Generator: Adobe Illustrator 25.4.1, SVG Export Plug-In . SVG Version: 6.00 Build 0)  -->
<svg version="1.1" id="Layer_1" xmlns="http://www.w3.org/2000/svg" xmlns:xlink="http://www.w3.org/1999/xlink" x="0px" y="0px"
	 viewBox="0 0 141.7 191.3" style="enable-background:new 0 0 141.7 191.3;" xml:space="preserve">
<style type="text/css">
	.st0{opacity:0.3;}
	.st1{fill:#390075;}
	.st2{fill:#FFA440;}
	.st3{opacity:0.25;}
	.st4{fill:#380072;}
	.st5{opacity:0.6;}
	.st6{fill:#FFFFFF;}
	.st7{fill:#F43459;}
	.st8{fill:#FFEB52;}
	.st9{fill:#AF5E31;}
	.st10{opacity:0.4;}
	.st11{fill:#E77527;}
	.st12{fill:#FF67A0;}
	.st13{fill:#B199C5;}
</style>
<g>
	<g class="st0">
		<ellipse class="st1" cx="70.9" cy="183.9" rx="48.4" ry="7.4"/>
	</g>
	<path class="st2" d="M39.8,145.1c0,0-3.3,4.9-10.4,6.3c-1.7,0.3-2.3,2.6-0.9,3.7c2.6,2.1,7.1,3.9,14.1,1.3L39.8,145.1z"/>
	<g class="st3">
		<path class="st4" d="M39.8,145.1c0,0-1.1,1.6-3.4,3.2l1.1,4.3c-4.1,1.5-7.3,1.5-9.8,0.9c0,0.6,0.3,1.1,0.8,1.5
			c2.6,2.1,7.1,3.9,14.1,1.3L39.8,145.1z"/>
	</g>
	<path class="st4" d="M36,158.9c-3.8,0-6.6-1.4-8.4-2.8c-1.5-1.2-1.7-3.3-0.5-4.7c0.5-0.6,1.2-1.1,2-1.2c6.4-1.2,9.6-5.7,9.6-5.7
		c0.4-0.6,1.2-0.7,1.8-0.3c0.3,0.2,0.4,0.4,0.5,0.7l2.8,11.2c0.2,0.6-0.2,1.3-0.8,1.5C40.4,158.5,38.1,158.9,36,158.9z M39.1,147.8
		c-1.8,1.7-4.9,4-9.5,4.9c-0.4,0.1-0.7,0.5-0.6,0.9c0,0.2,0.1,0.4,0.3,0.5c2.1,1.7,5.9,3.3,11.8,1.4L39.1,147.8z"/>
	<path class="st2" d="M53,99.1l-0.8,3l-0.7,2.6l-0.9,3.2l-10.9,38.9c-0.5,0.1-1,0.2-1.6,0.3c-0.3,0.1-0.6,0.1-0.9,0.2
		c-20.7,3.4-22.3-18.5-11.7-32.8c4.8-6.4,9.8-11,14-14c1.7-1.3,3.3-2.3,4.6-3.1c3-1.8,5-2.5,5-2.5l3.6,3.8h0L53,99.1z"/>
	<g class="st3">
		<path class="st4" d="M51.4,104.7l-0.9,3.2l-10.9,38.9c-0.5,0.1-1,0.2-1.6,0.3c-0.3,0.1-0.6,0.1-0.9,0.2c-1.8-0.7-3.8-1.7-5.6-2.9
			c0,0,4.2-3.4-2.4-4.7c0,0,1.4,0,3.2-0.8c0,0,4.1-7-4.1-9.6c-1.4-0.4-1.7-2.2-0.6-3.1c0.7-0.6,1.6-1.1,2.8-1.4
			c1.3-0.3,2.4-1.3,2.8-2.6c1.7-4.9,6.5-16.1,15.2-18.5C49.9,103.3,50.8,103.7,51.4,104.7z"/>
	</g>
	<g class="st5">
		<path class="st6" d="M26.9,117.1c4.8-6.4,9.8-11,14-14c1.7-1.3,3.3-2.3,4.6-3.1c3-1.8,5-2.5,5-2.5l2.2,2.4l0.2-0.8l-0.4-0.4h0
			l-3.6-3.8c0,0-1.9,0.7-5,2.5c-1.3,0.8-2.9,1.8-4.6,3.1c-4.2,3.1-9.2,7.6-14,14c-6.8,9.1-8.6,21.4-3.6,28.2
			C18.9,135.7,21,125.2,26.9,117.1z"/>
	</g>
	<path class="st4" d="M29.6,127.2c1,0,2,0.1,2.9,0.3c1,0.2,1.9,0.6,2.8,1.1c0.9,0.5,1.8,1.2,2.4,2.2c0.3,0.5,0.6,1.1,0.7,1.6
		c0,0.1,0.1,0.3,0.1,0.4c0,0.1,0,0.3,0.1,0.4l0,0.8c0,1.1-0.2,2.3-0.8,3.3c-0.2,0.3-0.4,0.5-0.6,0.7l-0.3,0.3l-0.2,0.2
		c-0.1,0-0.1,0.1-0.2,0.1c-0.2,0.2-0.5,0.4-0.7,0.5c-0.2,0.1-0.5,0.3-0.8,0.4c-1,0.4-2,0.6-3,0.6c-1,0-2,0-2.9-0.2
		c-0.2,0-0.3-0.2-0.3-0.4c0-0.1,0.1-0.3,0.3-0.3h0c0.9-0.3,1.8-0.4,2.7-0.7c0.9-0.3,1.7-0.6,2.4-1s1.2-0.9,1.5-1.5s0.5-1.3,0.5-2.1
		l0-0.6c0-0.1,0-0.2,0-0.3c0-0.1,0-0.2,0-0.3c-0.1-0.3-0.2-0.7-0.3-1c-0.3-0.6-0.9-1.3-1.5-1.8c-1.3-1.1-3-1.9-4.8-2.6l0,0
		c-0.1,0-0.2-0.2-0.1-0.3C29.5,127.2,29.5,127.2,29.6,127.2L29.6,127.2z"/>
	<path class="st4" d="M31.5,144.4c0.6-0.3,1.3-0.6,1.9-0.9c0.6-0.3,1.1-0.7,1.6-1.1c0.4-0.4,0.8-0.8,1.1-1.3c0.3-0.5,0.5-1,0.7-1.5
		l0.1-0.2c0.2-0.6,0.9-0.9,1.6-0.7c0.6,0.2,0.9,0.9,0.7,1.5c-0.1,0.2-0.1,0.4-0.2,0.6l-0.1,0.3c0,0.1-0.1,0.2-0.1,0.3
		c-0.1,0.2-0.2,0.4-0.3,0.6c-0.1,0.2-0.3,0.3-0.4,0.5c-0.6,0.6-1.2,1.2-2,1.6c-0.7,0.4-1.5,0.6-2.2,0.7c-0.8,0.1-1.5,0.1-2.3-0.1
		C31.5,144.5,31.5,144.4,31.5,144.4C31.5,144.4,31.5,144.4,31.5,144.4L31.5,144.4z"/>
	<path class="st4" d="M33.1,149c-5.6,0-10-2.1-12.7-6.1c-2.4-3.6-3.2-8.5-2.4-14c0.8-5.3,3.1-10.7,6.4-15.2
		c11.1-15,23.6-19.9,24.2-20.1c0.5-0.2,1-0.1,1.4,0.3l3.9,4.2c0.3,0.3,0.4,0.8,0.3,1.2l-13.4,47.8c-0.1,0.4-0.5,0.8-0.9,0.9
		C37.5,148.7,35.2,149,33.1,149z M48.8,96.4c-2.9,1.3-13.2,6.6-22.2,18.9c-6.4,8.6-8.1,19.9-3.9,26.2c3,4.5,8.5,5.9,16,4.3l13-46.4
		L48.8,96.4z"/>
	<path class="st2" d="M88.7,99.1l0.8,3l0.7,2.6l0.9,3.2l10.9,38.9c0.5,0.1,1,0.2,1.6,0.3c0.3,0.1,0.6,0.1,0.9,0.2
		c20.7,3.4,22.3-18.5,11.7-32.8c-4.8-6.4-9.8-11-14-14c-1.7-1.3-3.3-2.3-4.6-3.1c-3-1.8-5-2.5-5-2.5l-3.6,3.8h0L88.7,99.1z"/>
	<g class="st3">
		<path class="st4" d="M90.3,104.7l0.9,3.2l10.9,38.9c0.5,0.1,1,0.2,1.6,0.3c0.3,0.1,0.6,0.1,0.9,0.2c1.8-0.7,3.8-1.7,5.6-2.9
			c0,0-4.2-3.4,2.4-4.7c0,0-1.4,0-3.2-0.8c0,0-4.1-7,4.1-9.6c1.4-0.4,1.7-2.2,0.6-3.1c-0.7-0.6-1.6-1.1-2.8-1.4
			c-1.3-0.3-2.4-1.3-2.8-2.6c-1.7-4.9-6.5-16.1-15.2-18.5C91.9,103.3,90.9,103.7,90.3,104.7z"/>
	</g>
	<g class="st5">
		<path class="st6" d="M114.8,117.1c-4.8-6.4-9.8-11-14-14c-1.7-1.3-3.3-2.3-4.6-3.1c-3-1.8-5-2.5-5-2.5l-2.2,2.4l-0.2-0.8l0.4-0.4
			h0l3.6-3.8c0,0,1.9,0.7,5,2.5c1.3,0.8,2.9,1.8,4.6,3.1c4.2,3.1,9.2,7.6,14,14c6.8,9.1,8.6,21.4,3.6,28.2
			C122.9,135.7,120.8,125.2,114.8,117.1z"/>
	</g>
	<path class="st4" d="M112.2,127.6c-1.7,0.7-3.4,1.5-4.8,2.6c-0.7,0.5-1.2,1.1-1.5,1.8c-0.2,0.3-0.3,0.6-0.3,1c0,0.1,0,0.2,0,0.3
		c0,0.1,0,0.2,0,0.3l0,0.6c0,0.8,0.2,1.5,0.5,2.1c0.3,0.6,0.8,1.1,1.5,1.5c0.7,0.4,1.5,0.7,2.4,1s1.8,0.5,2.7,0.7h0
		c0.2,0.1,0.3,0.3,0.3,0.4c0,0.1-0.2,0.2-0.3,0.3c-1,0.1-2,0.2-2.9,0.2c-1-0.1-2-0.2-3-0.6c-0.3-0.1-0.5-0.2-0.8-0.4
		c-0.3-0.1-0.5-0.3-0.7-0.5c-0.1,0-0.1-0.1-0.2-0.1l-0.2-0.2l-0.3-0.3c-0.2-0.2-0.4-0.5-0.6-0.7c-0.6-1.1-0.8-2.2-0.8-3.3l0-0.8
		c0-0.1,0-0.3,0.1-0.4c0-0.1,0-0.3,0.1-0.4c0.1-0.6,0.4-1.1,0.7-1.6c0.6-1,1.5-1.7,2.4-2.2c0.9-0.5,1.8-0.9,2.8-1.1
		c1-0.2,1.9-0.4,2.9-0.3c0.1,0,0.2,0.1,0.2,0.2C112.3,127.5,112.3,127.6,112.2,127.6L112.2,127.6z"/>
	<path class="st4" d="M110.2,144.5c-0.7,0.2-1.5,0.2-2.3,0.1c-0.8-0.1-1.5-0.3-2.3-0.7c-0.7-0.4-1.4-0.9-2-1.6
		c-0.1-0.2-0.3-0.3-0.4-0.5c-0.1-0.2-0.2-0.4-0.3-0.6c0-0.1-0.1-0.2-0.1-0.3l-0.1-0.3c-0.1-0.2-0.1-0.4-0.2-0.6
		c-0.2-0.6,0.2-1.3,0.8-1.5c0.6-0.2,1.3,0.1,1.5,0.7l0.1,0.2c0.2,0.5,0.4,1.1,0.7,1.5c0.3,0.5,0.7,1,1.1,1.3c0.5,0.4,1,0.8,1.6,1.1
		c0.6,0.3,1.3,0.7,1.9,0.9h0C110.2,144.4,110.2,144.4,110.2,144.5C110.2,144.5,110.2,144.5,110.2,144.5L110.2,144.5z"/>
	<path class="st4" d="M108.6,149c-2.1,0-4.4-0.3-6.8-0.9c-0.5-0.1-0.8-0.5-0.9-0.9L87.5,99.4c-0.1-0.4,0-0.9,0.3-1.2l3.9-4.2
		c0.4-0.4,0.9-0.5,1.4-0.3c0.5,0.2,13.1,5.1,24.2,20.1c3.3,4.5,5.6,9.9,6.4,15.2c0.8,5.4-0.1,10.4-2.4,14
		C118.6,146.9,114.2,149,108.6,149z M103.1,145.8c7.5,1.7,13,0.2,16-4.3c4.2-6.3,2.5-17.5-3.9-26.2C106.1,103,95.9,97.7,93,96.4
		l-2.8,3L103.1,145.8z"/>
	<path class="st2" d="M108.1,180.9c-1,5.8-14.5,5.8-24.4,4.1c-2.8-0.5-5-2.5-5.7-5.2c-0.8-3.1-1.6-8.4-1.8-17.3c0,0-2,0.3-5.3,0.3
		c-0.2,0-0.3,0-0.5,0h-0.1c-2.9,0-4.7-0.3-4.7-0.3c-0.2,8.9-1,14.2-1.8,17.3c-0.7,2.7-2.9,4.7-5.7,5.2c-9.9,1.7-23.5,1.7-24.4-4.1
		c-0.1-0.9-0.1-1.7,0-2.3c0.1-0.3,0.2-0.6,0.3-0.9c1.2-2.8,4.6-3.5,4.6-3.5c-2.3-14-1.1-23.7-0.5-27c0.1-0.8,0.2-1.2,0.2-1.2
		c-3.7-25.6,5.2-38.5,6.8-40.6c0.2-0.2,0.3-0.3,0.3-0.3s1.9-1.6,6.8-3c4-1.2,10-2.2,18.7-2.2s14.7,1.1,18.7,2.2c4.9,1.4,6.8,3,6.8,3
		s0.1,0.1,0.2,0.3c1.6,2.1,10.5,14.9,6.8,40.6c0,0,0.1,0.4,0.2,1.2c0.6,3.3,1.8,13-0.5,27C103.1,174.2,109,175.3,108.1,180.9z"/>
	<ellipse class="st6" cx="70.9" cy="139.5" rx="18.1" ry="23.5"/>
	<g class="st3">
		<path class="st4" d="M96.4,105.1c0,0,16,47.5-25.5,47.5s-25.5-47.5-25.5-47.5c-11.9,18.7-6.5,37.9-6.5,37.9
			c9.6,19.8,32,19.6,32,19.6s22.3,0.2,32-19.6C102.9,142.9,108.3,123.7,96.4,105.1z"/>
	</g>
	<g class="st3">
		<path class="st4" d="M65.6,162.5c-0.2,8.9-1,14.2-1.8,17.3c-0.7,2.7-2.9,4.7-5.7,5.2c-9.9,1.7-23.5,1.7-24.4-4.1
			c-0.1-0.9-0.1-1.7,0-2.3c0.1-0.3,0.2-0.6,0.3-0.9c3.6,4.9,20.4,5.9,21.7,0.7c1.6-5.9,1.4-18,1.4-18
			C59.2,161.6,65.6,162.5,65.6,162.5z"/>
	</g>
	<g class="st3">
		<path class="st4" d="M76.1,162.5c0.2,8.9,1,14.2,1.8,17.3c0.7,2.7,2.9,4.7,5.7,5.2c9.9,1.7,23.5,1.7,24.4-4.1
			c0.1-0.9,0.1-1.7,0-2.3c-0.1-0.3-0.2-0.6-0.3-0.9c-3.6,4.9-20.4,5.9-21.7,0.7c-1.6-5.9-1.4-18-1.4-18
			C82.5,161.6,76.1,162.5,76.1,162.5z"/>
	</g>
	<g class="st3">
		<path class="st4" d="M102.2,100.5c-1.2,1.6-3,3.3-5.7,4.9c-1.5,0.9-3.3,1.8-5.4,2.6c-4.9,1.8-11.4,3-20.4,3
			c-8.9,0-15.5-1.2-20.3-3c-2.1-0.8-3.9-1.6-5.4-2.6c-2.6-1.6-4.4-3.3-5.7-4.9c1.7-1.3,3.3-2.3,4.6-3.1c2.2,0.4,5.1,0.9,8.5,1.3h0
			l0.4,0.4l-0.8,3c4-1.2,10-2.2,18.7-2.2s14.7,1.1,18.7,2.2l-0.8-3l0.4-0.4c3.5-0.4,6.3-0.8,8.5-1.3C99,98.2,100.5,99.2,102.2,100.5
			z"/>
	</g>
	<path class="st4" d="M38.2,172.9c0.1,0,0.2,0,0.2-0.1c0.1,0,0.1,0,0.2,0c0.1,0,0.2,0,0.4-0.1c0.2,0,0.5-0.1,0.7-0.1
		c0.5,0,0.9,0,1.4,0c0.9,0.1,1.9,0.3,2.7,0.6c0.9,0.3,1.7,0.7,2.5,1.2c0.4,0.2,0.7,0.6,1.1,0.8c0.3,0.3,0.6,0.6,0.9,1
		c0.1,0.1,0,0.2,0,0.2c0,0-0.1,0-0.1,0l0,0c-0.4-0.1-0.8-0.3-1.2-0.5c-0.4-0.1-0.8-0.3-1.2-0.4c-0.7-0.3-1.5-0.5-2.3-0.6l-0.6-0.1
		l-0.6,0c-0.4,0-0.8,0-1.1,0c-0.4,0-0.8,0.1-1.1,0.1c-0.2,0-0.4,0.1-0.5,0.1c-0.1,0-0.2,0-0.3,0.1c0,0-0.1,0-0.1,0l-0.1,0l0,0
		c-0.7,0.2-1.4-0.2-1.6-0.9C37.1,173.8,37.5,173.1,38.2,172.9L38.2,172.9L38.2,172.9z"/>
	<path class="st4" d="M102.8,175.4L102.8,175.4c-0.1,0-0.2,0-0.2-0.1c-0.1,0-0.2,0-0.3-0.1c-0.2,0-0.4-0.1-0.5-0.1
		c-0.4-0.1-0.7-0.1-1.1-0.1c-0.4,0-0.8,0-1.1,0l-0.6,0l-0.6,0.1c-0.8,0.1-1.6,0.3-2.3,0.6c-0.4,0.1-0.8,0.3-1.2,0.4
		c-0.4,0.1-0.8,0.3-1.2,0.5l0,0c-0.1,0-0.2,0-0.2-0.1c0-0.1,0-0.1,0-0.1c0.3-0.4,0.6-0.7,0.9-1c0.3-0.3,0.7-0.6,1.1-0.8
		c0.7-0.5,1.6-0.9,2.5-1.2c0.9-0.3,1.8-0.5,2.7-0.6c0.5,0,0.9,0,1.4,0c0.2,0,0.5,0,0.7,0.1c0.1,0,0.2,0,0.4,0.1c0.1,0,0.1,0,0.2,0
		c0.1,0,0.1,0,0.2,0.1c0.7,0.2,1,1,0.8,1.6C104.1,175.2,103.4,175.5,102.8,175.4L102.8,175.4L102.8,175.4z"/>
	<path class="st4" d="M76.1,161.2c0.5,0,1.1-0.1,1.6-0.2c0.6-0.1,1.1-0.2,1.7-0.3c1.1-0.2,2.2-0.5,3.3-0.8l0.8-0.2l0.8-0.3
		c0.3-0.1,0.5-0.2,0.8-0.3c0.3-0.1,0.5-0.2,0.8-0.3c1.1-0.4,2.1-0.9,3.2-1.5l0,0c0.1,0,0.2,0,0.2,0.1c0,0.1,0,0.1,0,0.2
		c-0.2,0.2-0.4,0.5-0.6,0.7c-0.1,0.1-0.2,0.2-0.3,0.3l-0.3,0.3c-0.2,0.2-0.5,0.4-0.7,0.6c-0.2,0.2-0.5,0.4-0.7,0.5
		c-1,0.7-2.1,1.3-3.2,1.8c-1.1,0.5-2.3,0.9-3.5,1.2c-0.6,0.2-1.2,0.3-1.8,0.4c-0.3,0.1-0.6,0.1-0.9,0.2c-0.3,0-0.6,0.1-1,0.1
		c-0.7,0.1-1.3-0.5-1.4-1.2C74.8,161.9,75.3,161.3,76.1,161.2L76.1,161.2L76.1,161.2z"/>
	<path class="st4" d="M65.5,163.8c-0.3,0-0.6-0.1-1-0.1c-0.3,0-0.6-0.1-0.9-0.2c-0.6-0.1-1.2-0.3-1.8-0.4c-1.2-0.3-2.3-0.7-3.5-1.2
		c-1.1-0.5-2.2-1.1-3.2-1.8c-0.2-0.2-0.5-0.4-0.7-0.5s-0.5-0.4-0.7-0.6l-0.3-0.3c-0.1-0.1-0.2-0.2-0.3-0.3c-0.2-0.2-0.4-0.5-0.6-0.7
		c-0.1-0.1,0-0.2,0-0.2c0,0,0.1,0,0.2,0l0,0c1.1,0.5,2.1,1.1,3.2,1.5c0.3,0.1,0.5,0.2,0.8,0.3s0.5,0.2,0.8,0.3l0.8,0.3L59,160
		c1.1,0.3,2.2,0.6,3.3,0.8c0.6,0.1,1.1,0.2,1.7,0.3c0.6,0.1,1.1,0.1,1.6,0.2l0,0c0.7,0.1,1.2,0.7,1.2,1.4
		C66.8,163.3,66.2,163.8,65.5,163.8L65.5,163.8L65.5,163.8z"/>
	<path class="st4" d="M37.7,185.5c-0.1-0.1-0.1-0.3-0.1-0.4c0-0.1-0.1-0.3-0.1-0.4c-0.1-0.3-0.1-0.6-0.1-0.8c0-0.6,0-1.1,0.1-1.7
		c0.1-0.6,0.2-1.1,0.4-1.6c0.2-0.5,0.5-1,0.8-1.5c0.1-0.1,0.3-0.1,0.4-0.1c0.1,0,0.1,0.1,0.1,0.2v0c0.1,0.5,0.1,1,0.2,1.5
		c0,0.1,0,0.2,0.1,0.4l0.1,0.4c0.1,0.2,0.1,0.5,0.1,0.7c0.1,0.5,0.2,0.9,0.3,1.4l0.1,0.7l0.1,0.3c0,0.1,0,0.2,0,0.3l0,0.3
		c0,0.7-0.5,1.3-1.2,1.3C38.4,186.3,37.9,186,37.7,185.5L37.7,185.5z"/>
	<path class="st4" d="M44.5,186.1c-0.1-0.1-0.1-0.3-0.1-0.4c0-0.1-0.1-0.3-0.1-0.4c-0.1-0.3-0.1-0.6-0.1-0.8c0-0.6,0-1.1,0.1-1.7
		c0.1-0.6,0.2-1.1,0.4-1.6c0.2-0.5,0.5-1,0.8-1.5c0.1-0.1,0.3-0.1,0.4-0.1c0.1,0,0.1,0.1,0.1,0.2v0c0.1,0.5,0.1,1,0.2,1.5
		c0,0.1,0,0.2,0.1,0.4l0.1,0.4c0.1,0.2,0.1,0.5,0.1,0.7c0.1,0.5,0.2,0.9,0.3,1.4l0.1,0.7l0.1,0.3c0,0.1,0,0.2,0,0.3l0,0.3
		c0,0.7-0.5,1.3-1.2,1.3C45.1,186.9,44.7,186.6,44.5,186.1L44.5,186.1z"/>
	<path class="st4" d="M101.6,184.7c0-0.1,0-0.2,0-0.3l0.1-0.3l0.1-0.7c0.1-0.4,0.2-0.9,0.3-1.4c0.1-0.2,0.1-0.5,0.1-0.7l0.1-0.4
		c0-0.1,0-0.2,0.1-0.4c0.1-0.5,0.1-1,0.2-1.5v0c0-0.1,0.1-0.3,0.3-0.2c0.1,0,0.1,0,0.2,0.1c0.3,0.5,0.6,0.9,0.8,1.5
		c0.2,0.5,0.3,1.1,0.4,1.6c0.1,0.6,0.1,1.1,0.1,1.7c0,0.3-0.1,0.6-0.1,0.8c0,0.1-0.1,0.3-0.1,0.4c0,0.2-0.1,0.3-0.1,0.4
		c-0.3,0.7-1,1-1.7,0.7c-0.5-0.2-0.8-0.7-0.8-1.2L101.6,184.7z"/>
	<path class="st4" d="M94.8,185.3c0-0.1,0-0.2,0-0.3l0.1-0.3l0.1-0.7c0.1-0.4,0.2-0.9,0.3-1.4c0.1-0.2,0.1-0.5,0.1-0.7l0.1-0.4
		c0-0.1,0-0.2,0.1-0.4c0.1-0.5,0.1-1,0.2-1.5v0c0-0.1,0.1-0.3,0.3-0.2c0.1,0,0.1,0,0.2,0.1c0.3,0.5,0.6,0.9,0.8,1.5
		c0.2,0.5,0.3,1.1,0.4,1.6c0.1,0.6,0.1,1.1,0.1,1.7c0,0.3-0.1,0.6-0.1,0.8c0,0.1-0.1,0.3-0.1,0.4c0,0.2-0.1,0.3-0.1,0.4
		c-0.3,0.7-1,1-1.7,0.7c-0.5-0.2-0.8-0.7-0.8-1.2L94.8,185.3z"/>
	<path class="st4" d="M96.6,104.8c1.4,1.3,2.4,2.8,3.3,4.3c0.9,1.6,1.7,3.2,2.3,4.9c1.3,3.4,2.1,6.9,2.7,10.5l0.4,2.7
		c0.1,0.9,0.1,1.8,0.2,2.7c0.2,1.8,0.1,3.6,0.1,5.4v0.7c0,0.2,0,0.4,0,0.7l-0.1,1.3l-0.2,2.7c-0.2,1.8-0.4,3.6-0.7,5.4l0-0.5l0,0
		c0.1,0.3,0.1,0.6,0.2,0.9c0.1,0.3,0.1,0.6,0.2,0.9c0.1,0.6,0.2,1.2,0.3,1.8c0.2,1.2,0.3,2.4,0.3,3.6c0.2,2.4,0.2,4.8,0.2,7.2
		c0,1.2-0.1,2.4-0.1,3.6c0,0.6-0.1,1.2-0.1,1.8l-0.2,1.8c0,0.6-0.1,1.2-0.2,1.8l-0.2,1.8c-0.2,1.2-0.3,2.4-0.5,3.5l-1-1.5
		c0.2,0.1,0.4,0.1,0.6,0.2c0.2,0.1,0.4,0.1,0.5,0.2c0.3,0.1,0.7,0.3,1,0.4c0.7,0.3,1.3,0.8,1.9,1.3c0.6,0.5,1.1,1.2,1.4,1.9
		c0.3,0.7,0.6,1.5,0.6,2.3c0,0.4,0,0.8,0,1.2c0,0.2,0,0.4-0.1,0.6c0,0.1,0,0.2,0,0.3l-0.1,0.3c-0.2,0.8-0.6,1.6-1.2,2.2
		c-0.5,0.6-1.2,1.1-1.8,1.4c-0.6,0.4-1.3,0.6-2,0.9c-2.7,0.9-5.3,1.1-7.9,1.2c-2.6,0.1-5.2,0-7.8-0.3c-1.3-0.1-2.6-0.3-3.9-0.5
		l-1-0.2l-0.2,0l-0.3-0.1c-0.2,0-0.4-0.1-0.5-0.1c-2.2-0.6-4.1-2.1-5.2-4.1c-0.2-0.3-0.3-0.7-0.5-1c-0.1-0.2-0.1-0.4-0.2-0.5
		l-0.1-0.3l-0.1-0.2c-0.2-0.6-0.3-1.3-0.4-1.9c-0.5-2.6-0.8-5.2-1-7.7c-0.2-2.6-0.3-5.2-0.4-7.7l1.5,1.2c-0.5,0.1-0.9,0.1-1.4,0.2
		c-0.5,0-0.9,0.1-1.4,0.1c-0.9,0.1-1.8,0.1-2.7,0.1c-0.9,0-1.8,0-2.7-0.1c-0.5,0-0.9-0.1-1.4-0.1c-0.5,0-0.9-0.1-1.4-0.2l1.5-1.2
		c-0.1,2.6-0.2,5.1-0.4,7.7s-0.5,5.2-1,7.7c-0.1,0.6-0.3,1.3-0.4,1.9l-0.1,0.2l-0.1,0.3c-0.1,0.2-0.1,0.4-0.2,0.5
		c-0.1,0.4-0.3,0.7-0.5,1c-1.1,2-3,3.5-5.2,4.1c-0.2,0.1-0.4,0.1-0.5,0.1l-0.3,0.1l-0.2,0l-1,0.2c-1.3,0.2-2.6,0.4-3.9,0.5
		c-2.6,0.3-5.2,0.4-7.8,0.3c-2.6-0.1-5.3-0.3-7.9-1.2c-0.7-0.2-1.3-0.5-2-0.9c-0.6-0.4-1.3-0.8-1.8-1.4c-0.6-0.6-1-1.4-1.2-2.2
		l-0.1-0.3c0-0.1,0-0.2,0-0.3c0-0.2-0.1-0.4-0.1-0.6c0-0.4,0-0.8,0-1.2c0.1-0.8,0.3-1.6,0.6-2.3c0.4-0.7,0.8-1.4,1.4-1.9
		c0.6-0.5,1.2-1,1.9-1.3c0.3-0.2,0.7-0.3,1-0.4c0.2-0.1,0.3-0.1,0.5-0.2c0.2-0.1,0.3-0.1,0.6-0.2l-1,1.5c-0.2-1.2-0.4-2.4-0.5-3.5
		l-0.2-1.8c-0.1-0.6-0.1-1.2-0.2-1.8l-0.2-1.8c-0.1-0.6-0.1-1.2-0.1-1.8c-0.1-1.2-0.1-2.4-0.2-3.6c0-2.4,0-4.8,0.2-7.2
		c0.1-1.2,0.2-2.4,0.3-3.6c0.1-0.6,0.2-1.2,0.3-1.8c0.1-0.3,0.1-0.6,0.2-0.9c0.1-0.3,0.1-0.6,0.2-0.9v0l0,0.5
		c-0.2-1.8-0.5-3.6-0.7-5.4l-0.2-2.7l-0.1-1.3c0-0.2,0-0.4,0-0.7v-0.7c0-1.8,0-3.6,0.1-5.4c0.1-0.9,0.1-1.8,0.2-2.7l0.4-2.7
		c0.6-3.6,1.4-7.1,2.7-10.5c0.6-1.7,1.4-3.4,2.3-4.9c0.9-1.6,1.9-3.1,3.3-4.4c0.2-0.2,0.4-0.1,0.6,0c0.1,0.1,0.1,0.3,0.1,0.5l0,0
		c-0.9,1.5-1.6,3.1-2.3,4.6c-0.2,0.4-0.4,0.8-0.5,1.2c-0.2,0.4-0.3,0.8-0.5,1.2l-0.2,0.6l-0.2,0.6c-0.1,0.4-0.3,0.8-0.4,1.2
		c-1.1,3.3-1.8,6.7-2.2,10.1l-0.3,2.6c-0.1,0.9-0.1,1.7-0.2,2.6s-0.1,1.7-0.1,2.6l0,2.6v0.7c0,0.2,0,0.4,0,0.7l0.1,1.3l0.1,2.6
		l0.5,5.2l0,0c0,0.1,0,0.3,0,0.4v0c-0.1,0.2-0.1,0.5-0.2,0.8c0,0.3-0.1,0.6-0.1,0.8c-0.1,0.6-0.2,1.1-0.2,1.7
		c-0.1,1.1-0.2,2.3-0.3,3.5c-0.2,2.3-0.2,4.6-0.2,7c0,1.2,0.1,2.3,0.1,3.5c0,0.6,0.1,1.2,0.1,1.7l0.2,1.7c0,0.6,0.1,1.2,0.2,1.7
		l0.2,1.7c0.2,1.2,0.3,2.3,0.5,3.5c0.1,0.7-0.3,1.3-1,1.5c-0.1,0-0.2,0.1-0.3,0.1c-0.1,0-0.3,0.1-0.4,0.1c-0.3,0.1-0.5,0.2-0.7,0.3
		c-0.5,0.2-0.9,0.5-1.3,0.9c-0.7,0.7-1.2,1.6-1.2,2.5c0,0.3,0,0.5,0,0.8c0,0.1,0,0.3,0,0.4c0,0.1,0,0.1,0,0.2l0,0.2
		c0.1,0.4,0.3,0.8,0.6,1.1c0.6,0.7,1.6,1.2,2.7,1.6c2.2,0.7,4.7,1,7.2,1.1c2.5,0.1,5,0,7.5-0.3c1.2-0.1,2.5-0.3,3.7-0.5l0.9-0.1
		l0.2,0l0.2,0c0.1,0,0.3-0.1,0.4-0.1c1.5-0.4,2.8-1.4,3.6-2.8c0.1-0.2,0.2-0.5,0.3-0.7c0.1-0.1,0.1-0.2,0.1-0.4l0.1-0.2l0.1-0.2
		c0.2-0.6,0.3-1.2,0.4-1.8c0.5-2.4,0.8-4.9,0.9-7.4c0.2-2.5,0.3-5,0.3-7.6c0-0.7,0.6-1.3,1.3-1.3c0.1,0,0.1,0,0.2,0h0
		c0.4,0.1,0.8,0.1,1.2,0.1s0.8,0.1,1.3,0.1c0.9,0,1.7,0.1,2.6,0.1c0.9,0,1.7,0,2.6-0.1c0.4,0,0.9-0.1,1.3-0.1s0.9-0.1,1.2-0.1h0
		c0.7-0.1,1.4,0.4,1.5,1.1c0,0,0,0,0,0c0,0.1,0,0.1,0,0.2c0.1,2.5,0.2,5.1,0.3,7.6c0.2,2.5,0.5,5,0.9,7.4c0.1,0.6,0.3,1.2,0.4,1.8
		l0.1,0.2l0.1,0.2c0,0.1,0.1,0.3,0.1,0.4c0.1,0.2,0.2,0.5,0.3,0.7c0.8,1.4,2.1,2.4,3.6,2.8c0.1,0,0.3,0.1,0.4,0.1l0.2,0l0.2,0
		l0.9,0.1c1.2,0.2,2.5,0.3,3.7,0.5c2.5,0.2,5,0.4,7.5,0.3c2.5-0.1,5-0.3,7.2-1.1c1.1-0.4,2.1-0.9,2.7-1.6c0.3-0.3,0.5-0.7,0.6-1.1
		l0-0.2c0-0.1,0-0.1,0-0.2c0-0.1,0-0.3,0-0.4c0-0.3,0-0.5,0-0.8c-0.1-1-0.5-1.9-1.2-2.5c-0.4-0.4-0.8-0.6-1.3-0.9
		c-0.2-0.1-0.5-0.2-0.7-0.3c-0.1,0-0.3-0.1-0.4-0.1c-0.1,0-0.3-0.1-0.3-0.1c-0.7-0.2-1.1-0.8-1-1.5c0.2-1.2,0.4-2.3,0.5-3.5l0.2-1.7
		c0.1-0.6,0.1-1.2,0.2-1.7l0.2-1.7c0.1-0.6,0.1-1.2,0.1-1.7c0.1-1.2,0.1-2.3,0.1-3.5c0-2.3,0-4.6-0.2-7c-0.1-1.2-0.2-2.3-0.3-3.5
		c-0.1-0.6-0.2-1.1-0.2-1.7c0-0.3-0.1-0.6-0.1-0.8c-0.1-0.3-0.1-0.6-0.2-0.8l0,0c0-0.1,0-0.3,0-0.4l0-0.1c0.2-1.7,0.4-3.5,0.5-5.2
		l0.1-2.6l0.1-1.3c0-0.2,0-0.4,0-0.7v-0.7v-2.6c0-0.9,0-1.7-0.1-2.6s-0.1-1.7-0.2-2.6l-0.3-2.6c-0.5-3.4-1.1-6.8-2.2-10.1l-0.4-1.2
		l-0.2-0.6l-0.2-0.6l-0.5-1.2c-0.1-0.2-0.2-0.4-0.2-0.6l-0.2-0.6c-0.7-1.6-1.4-3.2-2.3-4.7l0,0c-0.1-0.2,0-0.4,0.1-0.5
		C96.3,104.7,96.5,104.7,96.6,104.8L96.6,104.8z"/>
	<path class="st7" d="M70.8,97.4c22.2,0,30.5-3.7,30.5-3.7s-2.3,13.9-30.4,13.9S40.4,93.7,40.4,93.7S48.7,97.4,70.8,97.4"/>
	<g class="st3">
		<path class="st4" d="M70.8,103.8c-17.5,0-25-5.3-28.1-9.4c-1.6-0.4-2.3-0.8-2.3-0.8s2.3,13.9,30.4,13.9s30.4-13.9,30.4-13.9
			s-0.7,0.3-2.3,0.8C95.8,98.5,88.3,103.8,70.8,103.8z"/>
	</g>
	<path class="st4" d="M70.8,108.6c-11.9,0-20.8-2.4-26.5-7.2c-4.3-3.7-5-7.4-5-7.6c-0.1-0.6,0.3-1.1,0.9-1.2c0.2,0,0.4,0,0.6,0.1
		c0.1,0,8.4,3.6,30,3.6c21.7,0,29.9-3.5,30-3.6c0.5-0.2,1.2,0,1.4,0.5c0.1,0.2,0.1,0.4,0.1,0.6c0,0.2-0.7,3.9-5,7.6
		C91.7,106.2,82.8,108.6,70.8,108.6z M42.2,95.4c0.6,1.2,1.7,2.9,3.7,4.5c3.6,3,10.9,6.6,24.9,6.6s21.3-3.6,24.9-6.6
		c2-1.6,3.1-3.3,3.7-4.5c-3.8,1.1-12.5,3-28.6,3h-0.1C54.7,98.4,45.9,96.5,42.2,95.4z"/>
	<path class="st8" d="M70.8,117c1.3,0,2.2-0.5,2.8-1.2c1.1-1.2,1.2-2.9,0.5-4.3l-3.3-6.5l-3.3,6.5c-0.7,1.4-0.6,3.2,0.5,4.3
		C68.7,116.5,69.6,117,70.8,117"/>
	<g class="st3">
		<path class="st4" d="M70.9,117L70.9,117z"/>
	</g>
	<g class="st3">
		<path class="st4" d="M74.4,112.2c-0.2,0.5-0.4,1-0.8,1.4c-0.6,0.7-1.5,1.2-2.8,1.2h0c-1.3,0-2.2-0.5-2.8-1.2
			c-0.4-0.4-0.6-0.9-0.8-1.4c0.1-0.2,0.2-0.5,0.3-0.7l0.4-0.8c0.1,0.2,0.2,0.3,0.4,0.5c0.5,0.6,1.3,1.1,2.5,1.1h0
			c1.2,0,2-0.5,2.5-1.1c0.1-0.2,0.3-0.3,0.4-0.5l0.4,0.8C74.2,111.7,74.3,112,74.4,112.2z"/>
	</g>
	<path class="st4" d="M70.9,117.9L70.9,117.9c-1.4,0-2.6-0.5-3.5-1.5c-1.3-1.4-1.5-3.6-0.6-5.3l3.3-6.5c0.2-0.4,0.8-0.6,1.2-0.4
		c0.2,0.1,0.3,0.2,0.4,0.4l3.3,6.5c0.9,1.8,0.6,3.9-0.6,5.3C73.4,117.4,72.3,117.9,70.9,117.9L70.9,117.9z M70.8,107l-2.5,4.9
		c-0.6,1.1-0.4,2.5,0.4,3.3c0.5,0.6,1.2,0.9,2.1,0.9c0.9,0,1.6-0.3,2.1-0.9c0.8-0.9,0.9-2.2,0.4-3.3L70.8,107z"/>
	<path class="st9" d="M140.4,56.9c-0.8,16.5-20.2,16.9-20.2,16.9s-7.9-44.1-23.3-59.6c-2.1-2.1-4.4-3.7-6.8-4.6
		c0,0,25.3-12.2,34.4,21.1c0.2,0.9,0.8,1.6,1.5,2c2.7,1.6,9.2,6.2,12.5,13.7C139.9,49.7,140.6,53.3,140.4,56.9z"/>
	<g class="st10">
		<path class="st4" d="M139.9,53.6c-0.8,16.5-20.2,16.9-20.2,16.9s-7.1-39.9-21.1-57.1c0.6-0.2,1.3-0.2,1.9-0.1
			c14.4,2.7,15.2,21.6,20.2,29c2,2.9,3.8,6.8,5.2,10.5c2.6,6.9,12.9,5,12.9-2.4c0-2.3-0.4-4-0.4-4c0.6,1.3,1.1,2.7,1.4,4.2
			C139.9,51.6,140,52.6,139.9,53.6z"/>
	</g>
	<g class="st10">
		<path class="st6" d="M138.5,46.4c-3.3-7.5-9.8-12.1-12.5-13.7c-0.8-0.5-1.3-1.2-1.5-2C115.4-2.7,90,9.6,90,9.6
			c0.5,0.2,0.9,0.4,1.4,0.6c7.3-2,23.9-3.3,30.9,22.3c0.2,0.9,0.8,1.6,1.5,2c2.7,1.6,11.4,6,14.7,13.5c1.3,3,1.6,6.5,1.4,10.5
			c-0.2,4.8-3.8,8.4-6.2,10.9c3.5-2.5,6.4-6.4,6.7-12.6C140.6,53.3,139.9,49.7,138.5,46.4z"/>
	</g>
	<path class="st4" d="M120.2,75.1c-0.6,0-1.2-0.4-1.3-1.1c-0.1-0.6-10.3-56.4-29.4-63.2c-0.7-0.2-1-1-0.8-1.6
		c0.1-0.3,0.3-0.6,0.7-0.7c0.4-0.2,10.4-4.9,20.4-0.4c7.4,3.4,12.7,10.9,15.8,22.3c0.1,0.5,0.5,1,1,1.3c3.7,2.3,15.7,10.7,15,25.3
		c-0.3,7.3-4.2,12.7-11.2,15.8C125.4,74.9,120.5,75.1,120.2,75.1L120.2,75.1z M93.4,9.8c17.3,10.4,26.4,54.7,27.9,62.7
		c1.7-0.2,5-0.6,8.3-2.1c6-2.7,9.3-7.2,9.6-13.5c0.6-13.2-10.4-20.9-13.8-23c-1-0.6-1.8-1.6-2.1-2.8c-2.9-10.6-7.7-17.5-14.4-20.6
		C102.9,7.7,96.8,8.7,93.4,9.8z"/>
	<path class="st9" d="M1.3,56.9c0.8,16.5,20.2,16.9,20.2,16.9s7.9-44.1,23.3-59.6c2.1-2.1,4.4-3.7,6.8-4.6c0,0-25.3-12.2-34.4,21.1
		c-0.2,0.9-0.8,1.6-1.5,2c-2.7,1.6-9.2,6.2-12.5,13.7C1.8,49.7,1.1,53.3,1.3,56.9z"/>
	<g class="st10">
		<path class="st4" d="M1.8,53.6C2.6,70.1,22,70.5,22,70.5s7.1-39.9,21.1-57.1c-0.6-0.2-1.3-0.2-1.9-0.1C26.8,16,26,35,21,42.3
			c-2,2.9-3.8,6.8-5.2,10.5c-2.6,6.9-12.9,5-12.9-2.4c0-2.3,0.4-4,0.4-4c-0.6,1.3-1.1,2.7-1.4,4.2C1.8,51.6,1.8,52.6,1.8,53.6z"/>
	</g>
	<g class="st10">
		<path class="st6" d="M3.2,46.4c3.3-7.5,9.8-12.1,12.5-13.7c0.8-0.5,1.3-1.2,1.5-2C26.3-2.7,51.7,9.6,51.7,9.6
			c-0.5,0.2-0.9,0.4-1.4,0.6c-7.3-2-23.9-3.3-30.9,22.3c-0.2,0.9-0.8,1.6-1.5,2c-2.7,1.6-11.4,6-14.7,13.5c-1.3,3-1.6,6.5-1.4,10.5
			C2,63.4,5.6,67,8,69.5C4.5,67,1.6,63,1.3,56.9C1.1,53.3,1.8,49.7,3.2,46.4z"/>
	</g>
	<path class="st4" d="M21.5,75.1L21.5,75.1c-0.2,0-5.2-0.1-10.3-2.4c-7-3-10.8-8.5-11.2-15.8c-0.7-14.6,11.3-23.1,15-25.3
		c0.5-0.3,0.8-0.7,1-1.3c3.1-11.4,8.4-18.9,15.8-22.3c10-4.6,20,0.2,20.4,0.4c0.6,0.3,0.9,1.1,0.6,1.7c-0.1,0.3-0.4,0.5-0.7,0.7
		C33,17.6,22.9,73.4,22.8,74C22.7,74.6,22.1,75.1,21.5,75.1z M41.2,8.7c-2.6,0-5.5,0.4-8.3,1.7c-6.7,3-11.5,10-14.4,20.6
		c-0.3,1.2-1.1,2.2-2.1,2.8C13,35.9,2,43.6,2.6,56.8c0.3,6.3,3.5,10.9,9.6,13.5c3.3,1.4,6.6,1.9,8.2,2.1C22,64.5,31.1,20.1,48.4,9.8
		C46.6,9.2,44,8.7,41.2,8.7z"/>
	<path class="st2" d="M120.7,80.4c-10.8,18-34.5,19.4-49.8,19.4h0c-15.3,0-39-1.4-49.8-19.4c-6.9-11.5-2.7-24.7,1.2-32.8
		c0.2-0.5,0.5-1,0.7-1.4c2.1-4,3.6-8.2,4.6-12.6C30.2,22.5,39.2,1.3,70.9,1.3s40.7,21.2,43.3,32.3c1,4.4,2.6,8.6,4.6,12.6
		C122.9,54.1,128.1,68.2,120.7,80.4z"/>
	<ellipse class="st11" cx="47" cy="41.4" rx="15.6" ry="18.1"/>
	<path class="st6" d="M120.7,80.4c0.8-1.3,1.4-2.6,2-4c-12.8,10.9-20.5,5.9-24.4,0.5c-2-2.7-3.3-5.9-3.8-9.2
		C92.5,56,83.2,51.3,77.2,49.4c-3.9-1.2-8.1-1.2-12,0C59.3,51.3,49.9,56,48,67.7c-0.5,3.3-1.8,6.5-3.8,9.2
		c-4.1,5.6-12,10.7-25.5-1.4c0.6,1.7,1.4,3.4,2.3,4.9c10.8,18,34.5,19.4,49.8,19.4h0C86.2,99.8,109.9,98.4,120.7,80.4z"/>
	<g class="st3">
		<path class="st4" d="M70.8,60h-5.4c0,0-0.4,4.6-7.3,5.8c-3.7,0.7-4.9-1.2-5.3-3.1c-0.3-1.6-2.5-1.7-2.9-0.1
			c-0.2,0.7-0.3,1.5-0.1,2.5c0.6,4.6,4.3,6.8,11.6,4.6C68.7,67.4,69.9,63.4,70.8,60z"/>
	</g>
	<g class="st3">
		<path class="st4" d="M70.8,60h5.4c0,0,0.4,4.6,7.3,5.8c3.7,0.7,4.9-1.2,5.3-3.1c0.3-1.6,2.5-1.7,2.9-0.1c0.2,0.7,0.3,1.5,0.1,2.5
			c-0.6,4.6-4.3,6.8-11.6,4.6C73,67.4,71.8,63.4,70.8,60z"/>
	</g>
	<g class="st3">
		<path class="st4" d="M124.4,65.2c-0.2,4.1-1.3,8.3-3.7,12.3c-10.8,18-34.5,19.4-49.8,19.4h0c-15.3,0-39-1.4-49.8-19.4
			c-2.4-4-3.5-8.2-3.7-12.3c0.2-3.3,0.8-6.5,1.7-9.4c-0.1,4.6,0.9,9.3,3.6,13.8C33.1,87,56,88.3,70.8,88.3h0
			c14.8,0,37.8-1.4,48.2-18.8c2.7-4.5,3.6-9.2,3.6-13.8C123.6,58.7,124.2,61.9,124.4,65.2z"/>
	</g>
	<g class="st5">
		<path class="st6" d="M26.5,37.7c0.2-1.1,0.6-2.2,0.9-3.4C27.2,35.4,26.9,36.6,26.5,37.7z"/>
	</g>
	<g class="st5">
		<path class="st6" d="M115.2,37.7c-0.4-1.1-0.7-2.3-0.9-3.4C114.7,35.5,115,36.6,115.2,37.7z"/>
	</g>
	<g class="st5">
		<path class="st6" d="M114.3,34.3c-0.1-0.2-0.1-0.4-0.2-0.7c-2.6-11.1-11.6-32.3-43.3-32.3S30.2,22.5,27.6,33.6
			c-0.1,0.2-0.1,0.4-0.2,0.7c3.1-9.5,11-23.1,29.6-27.7c1.1,0.8,4.4,1.1,8.3,0.7c3.8-0.4,6.9-1.3,7.9-2.2
			C100.2,6,110.7,23,114.3,34.3z"/>
	</g>
	<path class="st4" d="M70.9,53.4c-4,0-6.4,1-7.7,1.9C62,56.2,61.8,58,62.8,59c1.5,1.5,3.7,2.6,5.4,3.2c1.7,0.6,3.5,0.6,5.2,0
		c1.7-0.6,3.9-1.6,5.4-3.2c1-1.1,0.9-2.8-0.3-3.7C77.2,54.3,74.9,53.4,70.9,53.4z"/>
	<ellipse class="st6" cx="70.9" cy="55.5" rx="5" ry="0.8"/>
	<path class="st4" d="M72.1,59.5c0,0,0,0.1,0,0.2l0,0.2c0,0.1,0,0.3,0,0.4c0,0.3,0.1,0.6,0.1,0.9c0.4,1.7,1.3,3.3,2.6,4.5
		c0.2,0.2,0.4,0.4,0.7,0.6c0.2,0.2,0.5,0.4,0.7,0.5c0.5,0.3,1.1,0.6,1.6,0.9c1.1,0.5,2.4,0.9,3.6,1.1c1.3,0.3,2.6,0.4,3.8,0.4
		s2.4-0.2,3.3-0.7c0.9-0.5,1.5-1.3,2-2.4c0.4-1.1,0.6-2.4,0.7-3.8v0c0-0.1,0.1-0.2,0.3-0.2c0,0,0,0,0,0c0.1,0,0.2,0.1,0.2,0.1
		c0.4,0.7,0.6,1.4,0.8,2.1c0.2,0.8,0.2,1.5,0.1,2.3c-0.1,0.8-0.4,1.6-0.9,2.3c-0.5,0.7-1.1,1.3-1.9,1.8c-1.5,0.9-3.1,1.2-4.6,1.3
		c-1.5,0.1-3-0.1-4.4-0.4c-1.5-0.3-2.9-0.7-4.3-1.3c-1.4-0.6-2.7-1.4-3.9-2.5c-1.7-1.6-2.9-3.8-3.2-6.2c-0.1-0.4-0.1-0.8-0.1-1.2
		c0-0.2,0-0.4,0-0.6c0-0.1,0-0.2,0-0.3c0-0.1,0-0.2,0-0.4c0.1-0.7,0.7-1.2,1.4-1.1c0.5,0.1,1,0.5,1.1,1L72.1,59.5z"/>
	<path class="st4" d="M72.1,59.2c0,0.2,0,0.2,0,0.4s0,0.2,0,0.3c0,0.2,0,0.4,0,0.6c0,0.4,0,0.8-0.1,1.2c-0.4,2.4-1.5,4.5-3.2,6.2
		c-1.1,1.1-2.5,1.9-3.9,2.5c-1.4,0.6-2.8,1-4.3,1.3c-1.4,0.3-2.9,0.4-4.4,0.4c-1.5-0.1-3.1-0.4-4.6-1.3c-0.7-0.5-1.4-1.1-1.9-1.8
		c-0.5-0.7-0.7-1.5-0.9-2.3c-0.1-0.8-0.1-1.6,0.1-2.3c0.2-0.7,0.4-1.4,0.8-2.1c0.1-0.1,0.2-0.2,0.4-0.1c0.1,0,0.1,0.1,0.1,0.2v0
		c0.1,1.4,0.3,2.7,0.7,3.8c0.4,1.1,1,1.9,2,2.4c0.9,0.5,2.1,0.7,3.3,0.7c1.2,0,2.5-0.2,3.8-0.4c1.3-0.3,2.5-0.6,3.6-1.1
		c0.6-0.3,1.1-0.5,1.6-0.9c0.3-0.2,0.5-0.3,0.7-0.5c0.2-0.2,0.5-0.4,0.7-0.6c1.3-1.2,2.2-2.8,2.6-4.5c0.1-0.3,0.1-0.6,0.1-0.9
		c0-0.1,0-0.3,0-0.4l0-0.2c0-0.1,0-0.1,0-0.2l0.1-0.4c0.1-0.7,0.8-1.1,1.5-1C71.7,58.2,72.1,58.7,72.1,59.2L72.1,59.2z"/>
	<path class="st4" d="M70.9,60c0,9.2,12.2,10.5,12.2,10.5s-5.6,14.8-12.2,14.8c-6.6,0-12.2-14.8-12.2-14.8S70.9,69.2,70.9,60z"/>
	<path class="st12" d="M70.9,74.4c-5.5,0-7.4,5.3-7.4,5.3c3.6,5.8,7.4,5.6,7.4,5.6s3.9,0.2,7.4-5.6C78.3,79.7,76.4,74.4,70.9,74.4z"
		/>
	<path class="st4" d="M70.9,86.6c-7.3,0-12.8-14-13.4-15.6c-0.3-0.7,0.1-1.4,0.7-1.7c0.1,0,0.2-0.1,0.3-0.1
		c0.5-0.1,11.1-1.3,11.1-9.2v0c0-0.7,0.6-1.3,1.3-1.3c0.7,0,1.2,0.6,1.3,1.3v0c0,7.9,11,9.2,11.1,9.2c0.7,0.1,1.2,0.7,1.1,1.4
		c0,0.1,0,0.2-0.1,0.3C83.7,72.6,78.2,86.6,70.9,86.6z M60.4,71.5C62.4,76,66.7,84,70.9,84c4.2,0,8.5-8.1,10.4-12.5
		c-3.5-0.7-8.2-2.7-10.4-6.6C68.7,68.8,64,70.8,60.4,71.5z"/>
	<path class="st4" d="M70.9,101.1c-7.6,0-17.6-0.3-27-3c-11-3.1-19.1-8.8-24-17c-7.7-12.9-2.1-27.7,1.9-35.5c2-3.8,3.5-8,4.5-12.3
		c1.3-5.8,4.3-14.1,11-20.9C45.4,4.2,56.7,0,70.9,0s25.4,4.2,33.5,12.4c6.7,6.9,9.7,15.2,11,20.9c1,4.4,2.5,8.5,4.5,12.3
		c4,7.7,9.7,22.6,1.9,35.5c-4.9,8.2-13,13.9-24,17C88.4,100.8,78.5,101.1,70.9,101.1z M70.9,2.6c-30.3,0-39.3,19.6-42,31.3
		c-1.1,4.6-2.7,8.9-4.8,13c-3.8,7.2-9.1,21.1-2,32.9c10,16.6,31.3,18.8,48.7,18.8s38.7-2.1,48.7-18.8c7.1-11.8,1.8-25.7-2-32.9
		c-2.1-4-3.7-8.4-4.8-13C110.2,22.2,101.2,2.6,70.9,2.6L70.9,2.6z"/>
	<path class="st4" d="M101.5,46c-0.1,0-0.3-0.1-0.5-0.1l-0.5-0.1l-1-0.3c-0.6-0.2-1.3-0.3-1.9-0.4c-1.2-0.2-2.4-0.3-3.4-0.1
		c-0.5,0.1-1,0.2-1.5,0.4c-0.5,0.2-1,0.4-1.4,0.7c-0.9,0.6-1.9,1.5-2.9,2.5l0,0c-0.5,0.5-1.4,0.6-2,0c-0.3-0.3-0.5-0.8-0.4-1.3
		c0.3-1.6,1.1-3.2,2.4-4.6c1.3-1.4,3.1-2.3,5-2.6c1.9-0.3,3.8,0.1,5.4,0.7c0.8,0.3,1.5,0.7,2.2,1.2c0.3,0.2,0.7,0.5,1,0.8
		c0.2,0.1,0.3,0.3,0.5,0.4c0.2,0.2,0.3,0.3,0.5,0.5c0.5,0.6,0.4,1.4-0.1,1.9c-0.3,0.2-0.7,0.4-1,0.3L101.5,46z"/>
	<path class="st4" d="M51.2,33.7c-4-1-8.3,2.8-9.5,8.5c-1.2,5.7,1.1,11.1,5.1,12.1c4,1,8.3-2.8,9.5-8.5S55.2,34.7,51.2,33.7z"/>
	<path class="st6" d="M50.6,36.1c-1.4,0.3-2.1,2.2-1.7,4.2c0.4,2,1.8,3.3,3.2,3c1.4-0.3,2.1-2.2,1.7-4.2
		C53.4,37.1,52,35.7,50.6,36.1z"/>
	<path class="st13" d="M44.9,47.8c-0.7,0.4-0.9,1.4-0.4,2.4c0.4,1,1.3,1.5,2,1.1s0.9-1.4,0.4-2.4C46.5,48,45.6,47.5,44.9,47.8z"/>
</g>
</svg>
