<svg id="Layer_1" data-name="Layer 1" xmlns="http://www.w3.org/2000/svg" viewBox="0 0 141.73 189.81"><defs><style>.cls-1{opacity:0.3;}.cls-2{fill:#390075;}.cls-3{fill:#585c7f;}.cls-4{opacity:0.6;}.cls-5{fill:#fff;}.cls-6{opacity:0.7;}.cls-7{fill:#ed2e7a;}.cls-8{fill:#feb71f;}.cls-9{fill:#3dbfac;}.cls-10{fill:#28e1f9;}.cls-11{opacity:0.4;}.cls-12{fill:#e62036;}.cls-13{opacity:0.2;}</style></defs><g class="cls-1"><ellipse class="cls-2" cx="70.87" cy="180.38" rx="70.87" ry="9.43"/></g><path class="cls-3" d="M102.2,124.77a4.12,4.12,0,0,0,.84,6c4.53,3.09,13.09,6.85,22.33.22,7.45-5.35,11.87-13.38,14.34-19.56a5.44,5.44,0,0,0-6.49-7.27A62,62,0,0,0,102.2,124.77Z"/><g class="cls-1"><path class="cls-2" d="M133,104.27a5.44,5.44,0,0,1,2.13,6.63c-2.47,6.18-6.89,14.21-14.34,19.56a18.24,18.24,0,0,1-10.51,3.68A17.6,17.6,0,0,0,125.37,131c7.45-5.35,11.87-13.39,14.34-19.56a5.44,5.44,0,0,0-6.49-7.27Z"/></g><g class="cls-4"><path class="cls-5" d="M104.67,127.26a62,62,0,0,1,30.19-21.77,5.3,5.3,0,0,1,3.66.11,5.35,5.35,0,0,0-5.3-1.41,62,62,0,0,0-31,20.58,4.13,4.13,0,0,0,.84,6c.38.25.78.51,1.21.77A4.13,4.13,0,0,1,104.67,127.26Z"/></g><path class="cls-2" d="M114.66,135.86a22.29,22.29,0,0,1-12.28-4.1,5.29,5.29,0,0,1-1.37-7.35c.09-.13.19-.26.29-.38l.9.74-.9-.74a63.15,63.15,0,0,1,31.61-21,6.6,6.6,0,0,1,7.88,8.82c-2.44,6.08-7,14.49-14.74,20.07A19.24,19.24,0,0,1,114.66,135.86Zm20.06-30.71a4.38,4.38,0,0,0-1.19.16,60.85,60.85,0,0,0-30.44,20.2,3,3,0,0,0-.65,2.31,2.92,2.92,0,0,0,1.25,2c5,3.4,12.69,6.2,21,.24,7.32-5.26,11.62-13.26,13.94-19.05a4.22,4.22,0,0,0-.79-4.46,4.15,4.15,0,0,0-3.12-1.42Z"/><path class="cls-3" d="M116.54,136.51c0,44.2-45.67,42.47-45.67,42.47s-45.68,1.73-45.68-42.47A53.8,53.8,0,0,1,26.82,123,41.91,41.91,0,0,1,42.74,99.38c.34-.25.68-.5,1-.74a47.14,47.14,0,0,1,54.19,0C107.8,105.57,116.54,117.18,116.54,136.51Z"/><path class="cls-5" d="M97.52,106.13c-.15-.22-.31-.43-.46-.64a32.41,32.41,0,0,0-52.38,0l-.46.63a51.58,51.58,0,0,0-9.5,34.19c1.22,14,8.63,30,36.15,30,28.12,0,35.24-16.74,36.22-31A51.63,51.63,0,0,0,97.52,106.13Z"/><g class="cls-1"><path class="cls-2" d="M70.87,166.69s-41.33,1.56-45.36-36.33a60.32,60.32,0,0,0-.32,6.15c0,44.2,45.68,42.47,45.68,42.47s45.67,1.73,45.67-42.47a57.58,57.58,0,0,0-.32-6.15C112.2,168.25,70.87,166.69,70.87,166.69Z"/></g><g class="cls-1"><path class="cls-2" d="M99,99.38,70.86,97.61,42.74,99.38A41.91,41.91,0,0,0,26.82,123c8.45,3.54,22.57,7.37,44,7.37s35.59-3.83,44.05-7.37A42,42,0,0,0,99,99.38Z"/></g><path class="cls-2" d="M71.7,180.15h-.83c-1.36.05-21.54.48-35.09-12.56C28,160.07,24,149.62,24,136.51c0-16.84,6.42-29.9,19.07-38.82l.67,1-.67-1a48.28,48.28,0,0,1,55.53,0c12.66,8.92,19.07,22,19.07,38.83,0,13.11-4,23.56-11.75,31.06C93.65,179.42,75.87,180.15,71.7,180.15Zm-.83-2.33h0c.21,0,20.45.6,33.45-11.93,7.31-7,11-16.94,11-29.38,0-16-6.08-28.46-18.09-36.92a45.93,45.93,0,0,0-52.85,0c-12,8.46-18.09,20.88-18.09,36.92,0,12.45,3.71,22.33,11,29.38,13,12.53,33.24,11.93,33.44,11.93Z"/><path class="cls-5" d="M114.22,113.05c-7.26,8.76-22.55,12.06-43.35,12.06s-36.1-3.3-43.36-12.06-2.24-15.66-2.24-15.66c0-.85-.06-1.7-.07-2.53-.34-25.93,10.71-39.56,22-46.73a44.3,44.3,0,0,1,47.27,0c11.69,7.4,23.08,21.69,22,49.26C116.46,97.39,121.48,104.3,114.22,113.05Z"/><path class="cls-3" d="M94.5,48.13a44.3,44.3,0,0,0-47.27,0c-11.32,7.17-22.37,20.8-22,46.73h0l.61-.32a13.34,13.34,0,0,0,6.84-9.44c1.48-8.41,5.66-22.44,17.17-22.44,16.44,0,13,40.62,13,40.62l8,1.62,8-1.62s-3.43-40.62,13-40.62c11.51,0,15.69,14,17.17,22.44a13.32,13.32,0,0,0,6.84,9.44l.61.32h0C116.88,68.93,105.82,55.3,94.5,48.13Z"/><g class="cls-1"><path class="cls-2" d="M114.22,105.74c-7.26,8.76-22.55,12.07-43.35,12.07s-36.1-3.31-43.36-12.07a17.34,17.34,0,0,1-3.36-6c-.89,2.74-1.33,7.62,3.36,13.28,7.26,8.76,22.55,12.06,43.36,12.06s36.09-3.3,43.35-12.06c4.69-5.66,4.26-10.54,3.36-13.28A17.34,17.34,0,0,1,114.22,105.74Z"/></g><g class="cls-6"><path class="cls-5" d="M47.23,51.46a44.3,44.3,0,0,1,47.27,0c10.9,6.89,21.55,19.8,22,43.9.49-26.25-10.62-40-22-47.23a44.3,44.3,0,0,0-47.27,0c-11.32,7.17-22.37,20.8-22,46.73,0,.18,0,.37,0,.55C25.67,71.28,36.32,58.36,47.23,51.46Z"/><path class="cls-2" d="M25.05,95.41l0-.54C24.88,83,27.12,72.74,31.7,64.38a44.65,44.65,0,0,1,78.41.15c4.59,8.44,6.8,18.81,6.58,30.83h-.33c-.39-20.07-7.77-34.8-21.94-43.77a44.17,44.17,0,0,0-47.1,0c-14.18,9-21.57,23.72-21.95,43.82ZM70.87,41.47a44,44,0,0,0-23.55,6.8C34.42,56.44,27,69.91,25.6,87.51a54.44,54.44,0,0,1,6.56-20.62,44.55,44.55,0,0,1,15-15.57h0a44.67,44.67,0,0,1,62.43,15.55,54.65,54.65,0,0,1,6.56,20.58c-1.74-21.89-12.48-33.33-21.72-39.18A44,44,0,0,0,70.87,41.47Z"/></g><path class="cls-2" d="M70.87,126.28c-22.81,0-37.29-4.09-44.25-12.49-6.78-8.17-3.49-15.06-2.53-16.71-.46-12.63,1.67-23.54,6.33-32.42a45.64,45.64,0,0,1,80.89,0c4.66,8.89,6.79,19.79,6.33,32.43,1,1.64,4.25,8.53-2.52,16.71C108.15,122.19,93.68,126.28,70.87,126.28Zm0-83.8a43,43,0,0,0-23,6.64C32.73,58.69,25.52,74.91,26.43,97.35a1.21,1.21,0,0,1-.22.73c-.18.25-4.36,6.32,2.2,14.23S48.79,124,70.87,124s36-3.81,42.46-11.64,2.37-14,2.19-14.24a1.16,1.16,0,0,1-.22-.72c.91-22.44-6.29-38.66-21.42-48.23A43,43,0,0,0,70.87,42.48Z"/><path class="cls-3" d="M85.72,45.09,83.39,46.4l0,0L66.83,55.69S52.46,53.91,56,32L71.92,42.7a23.16,23.16,0,0,1,.21-3.53A9.19,9.19,0,0,1,73.55,35S79.48,39.75,85.72,45.09Z"/><path class="cls-2" d="M66.87,55.86h-.06a13.19,13.19,0,0,1-8.07-5.11C55.5,46.42,54.53,40.11,55.85,32l0-.25L71.75,42.39A23.41,23.41,0,0,1,72,39.15a9,9,0,0,1,1.44-4.24l.11-.13.13.1c.06,0,6,4.81,12.17,10.09l.18.15ZM56.14,32.27c-1.25,7.92-.29,14.07,2.86,18.27a13,13,0,0,0,7.8,5L85.43,45.07c-5.59-4.78-11-9.1-11.85-9.82a9.07,9.07,0,0,0-1.29,3.94,24.09,24.09,0,0,0-.2,3.5V43Z"/><g class="cls-6"><path class="cls-5" d="M66.83,55.69S52.46,53.91,56,32L71.92,42.7l-12-4.5a.72.72,0,0,0-.93.43.86.86,0,0,0-.05.23A19.8,19.8,0,0,0,66.83,55.69Z"/><path class="cls-2" d="M67.52,55.94l-.71-.09a13.19,13.19,0,0,1-8.07-5.11C55.5,46.42,54.53,40.11,55.85,32l0-.25L73.17,43.34l-13.31-5a.56.56,0,0,0-.72.33.57.57,0,0,0,0,.18,19.76,19.76,0,0,0,7.81,16.69ZM56.14,32.27C54.89,40.2,55.86,46.35,59,50.55a13.11,13.11,0,0,0,7.14,4.83,20.32,20.32,0,0,1-7.37-16.53A.89.89,0,0,1,59.7,38a.67.67,0,0,1,.28.06l10.69,4Z"/></g><g class="cls-6"><path class="cls-5" d="M85.72,45.09,83.39,46.4l0,0a28.35,28.35,0,0,0-11.23-7.25A9.14,9.14,0,0,1,73.55,35S79.48,39.75,85.72,45.09Z"/><path class="cls-2" d="M83.31,46.61l-.07-.09a28.74,28.74,0,0,0-11.16-7.19l-.13,0,0-.13a9,9,0,0,1,1.44-4.24l.11-.13.13.1c.06,0,6,4.81,12.17,10.09l.18.15-2.59,1.45Zm-11-7.55A29.13,29.13,0,0,1,83.4,46.21l2-1.14c-5.59-4.78-11-9.1-11.85-9.82A8.9,8.9,0,0,0,72.31,39.06Z"/></g><path class="cls-2" d="M66.83,55.69a5.35,5.35,0,0,1-2,.11A7.53,7.53,0,0,1,63,55.32a11.28,11.28,0,0,1-3.29-2.09,14.56,14.56,0,0,1-2.57-3,16.69,16.69,0,0,1-1.73-3.49c-.13-.3-.21-.62-.31-.92s-.19-.62-.26-.93L54.62,44,54.45,43c-.05-.31-.1-.63-.13-.94s-.08-.64-.11-1c0-.63-.06-1.27-.09-1.9a34.47,34.47,0,0,1,.75-7.44h0v0a1.18,1.18,0,0,1,1.37-.92,1.12,1.12,0,0,1,.42.18L72.57,41.74l-1.81,1c0-.74,0-1.41.06-2.11a20.86,20.86,0,0,1,.23-2.09,13.93,13.93,0,0,1,.51-2.12,7.18,7.18,0,0,1,1.07-2.12A1.14,1.14,0,0,1,74.1,34h0c1.23.7,2.4,1.41,3.58,2.14s2.33,1.5,3.47,2.29,2.27,1.59,3.38,2.43,2.19,1.72,3.26,2.62l-1.51,1.77c-1-.87-2.07-1.72-3.16-2.53S81,41.1,79.85,40.34s-2.25-1.51-3.39-2.23S74.14,36.68,73,36l1.47-.3a5,5,0,0,0-.69,1.43,10.49,10.49,0,0,0-.42,1.76c-.1.62-.17,1.24-.21,1.87s-.07,1.28-.06,1.88h0a1.15,1.15,0,0,1-1.14,1.18,1.08,1.08,0,0,1-.67-.2L55.37,33l1.79-.78h0a55.37,55.37,0,0,0-.37,7,24.79,24.79,0,0,0,1.07,6.74,14.35,14.35,0,0,0,1.36,3,13.19,13.19,0,0,0,2,2.63,12,12,0,0,0,1.25,1.11c.45.33.89.66,1.36,1C64.78,54.34,65.74,55,66.83,55.69Z"/><path class="cls-2" d="M76.49,106.1A8.41,8.41,0,0,1,74.91,110c-1.23,1.88-2.91,3.57-4,3.57s-2.93-1.75-4.14-3.67a8.29,8.29,0,0,1-1.48-3.79c0-4.12,2.52-7.46,5.62-7.46S76.49,102,76.49,106.1Z"/><path class="cls-7" d="M75,110c-1.23,1.88-2.91,3.57-4,3.57s-2.94-1.75-4.15-3.67A13.24,13.24,0,0,1,75,110Z"/><path class="cls-2" d="M70.87,114.55c-3.43,0-6.63-5.81-6.63-8.45,0-4.66,3-8.45,6.63-8.45s6.62,3.79,6.62,8.45C77.49,108.74,74.29,114.55,70.87,114.55Zm0-14.91c-2.56,0-4.64,2.9-4.64,6.46,0,2,2.7,6.46,4.64,6.46s4.63-4.48,4.63-6.46C75.5,102.54,73.42,99.64,70.87,99.64Z"/><path class="cls-8" d="M78.67,103.87c0,1.56-3.49,2-7.8,2s-7.81-.45-7.81-2c0-1.08,1.7-3.6,4.19-5a7.28,7.28,0,0,1,3.62-1,7.11,7.11,0,0,1,3.28.85C76.82,100.05,78.67,102.74,78.67,103.87Z"/><g class="cls-4"><path class="cls-5" d="M63.44,104.66a10.21,10.21,0,0,1,3.81-3.84,6.85,6.85,0,0,1,6.9-.19,10.33,10.33,0,0,1,4.15,4,1.07,1.07,0,0,0,.37-.79c0-1.13-1.85-3.83-4.52-5.21a6.85,6.85,0,0,0-6.9.19c-2.49,1.42-4.18,3.93-4.18,5A1,1,0,0,0,63.44,104.66Z"/></g><g class="cls-1"><path class="cls-2" d="M78.62,103.87c0,1.56-3.49,2-7.8,2s-7.8-.45-7.8-2c0-.4-.14.58.28-.08,1.2.77,4.32-1,7.52-1s6.5,1.28,7.7.51C78.94,104,78.62,103.47,78.62,103.87Z"/></g><path class="cls-2" d="M70.87,106.87c-4.35,0-8.8-.35-8.8-3,0-1.51,1.92-4.3,4.68-5.88a7.82,7.82,0,0,1,7.85-.21c2.9,1.5,5.06,4.45,5.06,6.09C79.66,106.52,75.22,106.87,70.87,106.87Zm0-8.06a6.36,6.36,0,0,0-3.13.9c-2.41,1.39-3.68,3.63-3.68,4.16,0,0,.55,1,6.81,1,6.06,0,6.75-.92,6.8-1,0-.58-1.42-3-4-4.32A6.12,6.12,0,0,0,70.87,98.81Z"/><path class="cls-9" d="M27.52,153.09a6.25,6.25,0,0,0,1.87,1.31s-1.83,6.61-4.67,9-5.19,3.92-5.19,1.33a11.9,11.9,0,0,1,.09-1.34c.34-3,1.43-7.81.18-9.17A27.71,27.71,0,0,0,14,149.77a6.84,6.84,0,0,1-2.61-2.49,1.1,1.1,0,0,1,.75-1.65,19.15,19.15,0,0,1,7.33-.44c1,.26,6.76,1.22,6.83,1.69,0,.25-.18,1-.26,1.93a5,5,0,0,0,1.49,4.28Z"/><path class="cls-2" d="M20.39,166.25a1,1,0,0,1-.42-.09c-.41-.19-.61-.66-.61-1.43a12.44,12.44,0,0,1,.1-1.36c.07-.63.17-1.32.28-2.05.39-2.66.88-6-.06-7a26.32,26.32,0,0,0-5.78-4.42,6.88,6.88,0,0,1-2.67-2.57,1.35,1.35,0,0,1-.08-1.1,1.52,1.52,0,0,1,.92-.77A18.9,18.9,0,0,1,19.5,145c.25.07.86.19,1.63.34,4.12.81,5.27,1.13,5.32,1.49a3,3,0,0,1-.08.73c-.06.34-.14.76-.18,1.23a5.2,5.2,0,0,0,.42,2.71,5.42,5.42,0,0,0,1,1.44h0a5.71,5.71,0,0,0,1.81,1.27l.14.06,0,.14c-.08.27-1.87,6.69-4.73,9.09C22.59,165.41,21.24,166.25,20.39,166.25Zm-3.3-21.07a16.48,16.48,0,0,0-4.9.6,1.18,1.18,0,0,0-.74.59,1.07,1.07,0,0,0,.08.84,6.69,6.69,0,0,0,2.54,2.43,26.76,26.76,0,0,1,5.86,4.47c1,1.14.56,4.39.13,7.26-.1.73-.2,1.42-.27,2a11.9,11.9,0,0,0-.1,1.33c0,.62.14,1,.42,1.13.82.39,3-1.29,4.5-2.58,2.56-2.15,4.31-7.84,4.59-8.79a6.55,6.55,0,0,1-1.8-1.28h0a6,6,0,0,1-1.09-1.54,5.5,5.5,0,0,1-.44-2.87,11.05,11.05,0,0,1,.18-1.27,5.94,5.94,0,0,0,.08-.6,29.58,29.58,0,0,0-5.06-1.24c-.78-.15-1.39-.27-1.66-.34A10.89,10.89,0,0,0,17.09,145.18Zm9,1.72Z"/><g class="cls-4"><path class="cls-5" d="M26.29,146.88c0,.25-.18,1-.26,1.93-2.59-.7-10.45-2.63-14.65-1.53a1.09,1.09,0,0,1,.75-1.65,18.9,18.9,0,0,1,7.32-.44C20.41,145.45,26.22,146.41,26.29,146.88Z"/></g><g class="cls-1"><path class="cls-2" d="M29.39,154.4s-1.83,6.61-4.67,9-5.19,3.92-5.19,1.33a12.24,12.24,0,0,1,.09-1.35c4.73-2.47,7.09-8,7.9-10.29A6.25,6.25,0,0,0,29.39,154.4Z"/></g><path class="cls-10" d="M47.08,125.68c-10.74,5.09-17.46,15.18-20.78,21.44A4.76,4.76,0,0,0,29.57,154c7,1.39,19,2.59,29.75-2.5,12.25-5.8,19.27-18.11,22-23.82A2.82,2.82,0,0,0,80,124a3.35,3.35,0,0,0-.53-.19C73.3,122.25,59.32,119.88,47.08,125.68Z"/><path class="cls-2" d="M41.35,155.38a60.78,60.78,0,0,1-11.81-1.19,4.94,4.94,0,0,1-3.87-5.8,5.3,5.3,0,0,1,.48-1.35c3.09-5.8,9.89-16.31,20.86-21.51,12.46-5.9,26.86-3.3,32.47-1.92a3,3,0,0,1,2.17,3.6,2.75,2.75,0,0,1-.2.57c-2.48,5.22-9.6,18-22.06,23.9A42.23,42.23,0,0,1,41.35,155.38Zm5.73-29.7.07.15c-10.88,5.15-17.64,15.6-20.71,21.36a4.61,4.61,0,0,0,1.91,6.23,4.33,4.33,0,0,0,1.25.44c6.4,1.29,18.77,2.68,29.65-2.48,12.36-5.85,19.44-18.56,21.91-23.74a2.66,2.66,0,0,0-1.26-3.53,2.3,2.3,0,0,0-.5-.18c-5.58-1.38-19.89-4-32.25,1.9Z"/><g class="cls-11"><path class="cls-5" d="M32.93,143.18a1.07,1.07,0,0,1-1.07-1.07,1.06,1.06,0,0,1,.17-.57c3.67-5.84,9.25-10.44,16.57-13.68a1.07,1.07,0,0,1,.86,2c-6.92,3.07-12.18,7.4-15.62,12.87A1.08,1.08,0,0,1,32.93,143.18Z"/></g><g class="cls-11"><path class="cls-5" d="M54.54,127.86a1.06,1.06,0,0,1-1.06-1.07,1,1,0,0,1,.75-1,39.9,39.9,0,0,1,5.57-1.32,1.07,1.07,0,0,1,.29,2.12,36.69,36.69,0,0,0-5.23,1.24A1.13,1.13,0,0,1,54.54,127.86Z"/></g><g class="cls-11"><path class="cls-5" d="M63.83,126a1.06,1.06,0,0,1-1.06-1.07,1.07,1.07,0,0,1,1-1.07,39.59,39.59,0,0,1,5.72,0,1.07,1.07,0,0,1-.2,2.13h0a37.19,37.19,0,0,0-5.38,0Z"/></g><g class="cls-1"><path class="cls-2" d="M81.31,127.71c-2.72,5.71-9.74,18-22,23.82-10.74,5.09-22.8,3.89-29.75,2.49A4.76,4.76,0,0,1,25.76,149a4.7,4.7,0,0,0,2.58,1.46c7,1.4,19,2.59,29.75-2.49,12.24-5.8,19.26-18.11,22-23.83l0-.07A2.81,2.81,0,0,1,81.31,127.71Z"/></g><path class="cls-2" d="M41.35,156.29a61.48,61.48,0,0,1-12-1.22,5.82,5.82,0,0,1-4.57-6.86,5.66,5.66,0,0,1,.57-1.6c3.13-5.9,10.06-16.59,21.26-21.89h0c12.73-6,27.38-3.4,33.08-2a3.86,3.86,0,0,1,2.83,4.69,3.73,3.73,0,0,1-.26.73c-2.52,5.31-9.77,18.31-22.49,24.34A43.24,43.24,0,0,1,41.35,156.29Zm6.19-29.64c-10.65,5-17.29,15.3-20.3,21A3.7,3.7,0,0,0,29.78,153c6.29,1.26,18.44,2.62,29.08-2.41,12.1-5.74,19-18.22,21.48-23.32a1.74,1.74,0,0,0-.83-2.32,1.61,1.61,0,0,0-.33-.12c-5.48-1.36-19.54-3.89-31.65,1.84Z"/><path class="cls-2" d="M70.4,144.05c-3.4-1.37-6.7-4.89-8.84-9.4s-2.76-9.3-1.67-12.79l1.88.58c-.93,3-.33,7.34,1.57,11.36s4.89,7.25,7.8,8.42Z"/><path class="cls-2" d="M51.67,125a9.39,9.39,0,0,0-.3,2.47,13.63,13.63,0,0,0,.31,2.7,12.48,12.48,0,0,0,.94,2.65,7.75,7.75,0,0,0,1.71,2.3h0a.16.16,0,0,1,0,.22.16.16,0,0,1-.17,0,6.38,6.38,0,0,1-2.61-1.85,10.52,10.52,0,0,1-1.71-2.76,9.72,9.72,0,0,1-.81-3.22,6.31,6.31,0,0,1,.67-3.44,1.08,1.08,0,0,1,1.46-.41,1.09,1.09,0,0,1,.51,1.21Z"/><path class="cls-2" d="M43.68,128.5c0,.15,0,.39,0,.6s0,.45,0,.68a12.81,12.81,0,0,0,.1,1.38,11.49,11.49,0,0,0,.73,2.73,15,15,0,0,0,1.46,2.63,12.82,12.82,0,0,0,2,2.35h0a.16.16,0,0,1-.16.27A9.27,9.27,0,0,1,45,137.37a12.32,12.32,0,0,1-2.21-2.57,9.37,9.37,0,0,1-1.32-3.26,8.27,8.27,0,0,1-.14-1.79,6.84,6.84,0,0,1,.09-.91,4.52,4.52,0,0,1,.25-1,1.06,1.06,0,0,1,2.06.45Z"/><path class="cls-2" d="M36.72,134.33a9.52,9.52,0,0,0,.15,2.26,15.81,15.81,0,0,0,.64,2.43,8.94,8.94,0,0,0,.49,1.13,10.7,10.7,0,0,0,2.52,3h0a.15.15,0,0,1,0,.21.17.17,0,0,1-.16.06,7.11,7.11,0,0,1-2.61-1.33,8.24,8.24,0,0,1-1.11-1,7.93,7.93,0,0,1-.9-1.25,9.5,9.5,0,0,1-1.18-2.79,5.92,5.92,0,0,1,0-3.23,1.07,1.07,0,0,1,2.09.4Z"/><path class="cls-2" d="M20.58,167.25a1.87,1.87,0,0,1-1.18-.38c-1.34-1-1-3.28-.59-6.2.3-2.07.67-4.66.11-5.83s-2.78-2.52-4.58-3.6c-2.52-1.52-4.51-2.72-4.42-4.39,0-.86.65-1.58,1.8-2.12,5.08-2.41,14.62,1,15,1.18a1.07,1.07,0,1,1-.73,2c-2.52-.92-9.83-2.94-13.38-1.26a2.34,2.34,0,0,0-.54.34c.32.58,2.21,1.72,3.36,2.41,2.25,1.36,4.58,2.77,5.41,4.52s.44,4.45.06,7c-.19,1.33-.5,3.51-.26,4.13a2.21,2.21,0,0,0,.61-.21c3.55-1.68,6.62-8.61,7.5-11.14a1.07,1.07,0,1,1,2,.66v0c-.14.41-3.53,10-8.61,12.37A3.78,3.78,0,0,1,20.58,167.25Z"/><path class="cls-2" d="M70.37,127.42a.72.72,0,0,1,.57.48l0,.07a.72.72,0,0,1-.45.92.69.69,0,0,1-.45,0l-1.94-.59-1.42,1.92a.72.72,0,0,1-1,.15.66.66,0,0,1-.25-.36h0a.71.71,0,0,1,.15-.71l1.06-1.19.18-.18.22-.16a1.08,1.08,0,0,1-.26,0l-.11,0-.16,0L65,127.4a.73.73,0,0,1-.54-.48h0a.72.72,0,0,1,.9-.92l2.25.7,1.24-1.65a.72.72,0,0,1,1-.14.64.64,0,0,1,.25.35l0,.08a.72.72,0,0,1-.17.73l-.77.79,0,0a1.47,1.47,0,0,1-.35.31,2.89,2.89,0,0,1,.5,0h0Z"/><path class="cls-8" d="M35.19,179.82a6.41,6.41,0,0,0,8-6.7c-.6-7.92-2.07-18.63-5.67-20-5.8-2.11-6.54,5.48-6.54,5.48a14.43,14.43,0,0,0-5.75-4,3.73,3.73,0,0,0-5.06,4.24,14.56,14.56,0,0,0,2.92,6.36s-7.6-.6-6.53,5.47C17.22,174.52,27.5,177.84,35.19,179.82Z"/><g class="cls-6"><path class="cls-5" d="M20.47,160.12a3.73,3.73,0,0,1,5.09-2.8,14.53,14.53,0,0,1,5.74,4s.75-7.59,6.54-5.48c2.59.95,4.08,6.74,4.93,12.86-.78-7-2.3-14.44-5.26-15.52-5.8-2.11-6.54,5.48-6.54,5.48a14.43,14.43,0,0,0-5.75-4,3.73,3.73,0,0,0-5.06,4.24C20.25,159.31,20.35,159.71,20.47,160.12Z"/></g><g class="cls-1"><path class="cls-2" d="M43.18,172.79c-.59-7.76-2-18.2-5.46-19.85,2.56,2.46,3.67,10.82,4.15,17.17a5.71,5.71,0,0,1-7.12,6c-6.85-1.75-16-4.71-16.61-8.08a4.6,4.6,0,0,1,0-2c-1.2.78-2,2.13-1.63,4.43.66,3.77,11,7.09,18.64,9.07A6.41,6.41,0,0,0,43.18,172.79Z"/></g><path class="cls-2" d="M36.82,181.14a7.75,7.75,0,0,1-1.91-.24h0A84.94,84.94,0,0,1,22.8,177c-4.58-1.95-7-3.93-7.35-6a5.3,5.3,0,0,1,1.11-4.71,7.23,7.23,0,0,1,4.43-2,16.42,16.42,0,0,1-1.92-5.09,4.84,4.84,0,0,1,6.57-5.51,16.53,16.53,0,0,1,4.68,2.78,7.16,7.16,0,0,1,2.74-4,5.29,5.29,0,0,1,4.83-.28c2,.73,3.54,3.44,4.67,8.29A86.39,86.39,0,0,1,44.3,173a7.54,7.54,0,0,1-6.95,8.09,4.71,4.71,0,0,1-.53,0Zm-1.35-2.41a5.29,5.29,0,0,0,6.45-3.8,5.61,5.61,0,0,0,.15-1.73c-1.24-16.39-4.1-18.67-5-19a3.14,3.14,0,0,0-2.86.06c-1.51.94-2.08,3.55-2.17,4.47a1.13,1.13,0,0,1-1.22,1,1.1,1.1,0,0,1-.75-.4,13.29,13.29,0,0,0-5.31-3.67,2.61,2.61,0,0,0-3.55,3,13.27,13.27,0,0,0,2.68,5.87,1.11,1.11,0,0,1-.13,1.57,1.16,1.16,0,0,1-.82.26c-.92-.07-3.58,0-4.77,1.36a3.13,3.13,0,0,0-.57,2.81c.16.88,1.9,4.09,17.82,8.18Z"/><path class="cls-2" d="M23.69,164.33a13.82,13.82,0,0,1,1.3,1c.42.35.82.73,1.22,1.11.79.76,1.58,1.54,2.32,2.39-1.07-.34-2.11-.74-3.12-1.16-.51-.21-1-.42-1.51-.66a13.29,13.29,0,0,1-1.43-.79Z"/><path class="cls-2" d="M32,158.22a11.66,11.66,0,0,1,.53,1.54c.15.52.27,1.06.39,1.6.24,1.07.45,2.16.59,3.28-.7-.88-1.34-1.79-1.94-2.71-.31-.46-.61-.92-.88-1.39a13.26,13.26,0,0,1-.75-1.45Z"/><path class="cls-8" d="M106.54,179.82a6.41,6.41,0,0,1-8-6.7c.6-7.92,2.07-18.63,5.67-20,5.8-2.11,6.54,5.48,6.54,5.48a14.43,14.43,0,0,1,5.75-4,3.73,3.73,0,0,1,5.06,4.24,14.56,14.56,0,0,1-2.92,6.36s7.6-.6,6.53,5.47C124.52,174.52,114.23,177.84,106.54,179.82Z"/><g class="cls-6"><path class="cls-5" d="M121.27,160.12a3.74,3.74,0,0,0-5.09-2.8,14.56,14.56,0,0,0-5.75,4s-.74-7.59-6.54-5.48c-2.58.95-4.07,6.74-4.93,12.86.78-7,2.31-14.44,5.26-15.52,5.8-2.11,6.54,5.48,6.54,5.48a14.43,14.43,0,0,1,5.75-4,3.73,3.73,0,0,1,5.06,4.24C121.49,159.31,121.38,159.71,121.27,160.12Z"/></g><g class="cls-1"><path class="cls-2" d="M98.55,172.79c.59-7.76,2-18.2,5.46-19.85-2.56,2.46-3.67,10.82-4.15,17.17a5.71,5.71,0,0,0,7.12,6c6.85-1.75,16-4.71,16.61-8.08a4.6,4.6,0,0,0,0-2c1.2.78,2,2.13,1.63,4.43-.66,3.77-11,7.09-18.64,9.07A6.41,6.41,0,0,1,98.55,172.79Z"/></g><path class="cls-2" d="M104.91,181.14a7.55,7.55,0,0,1-7.5-7.58c0-.18,0-.35,0-.53a86.19,86.19,0,0,1,1.74-12.61c1.13-4.85,2.66-7.56,4.67-8.3a5.32,5.32,0,0,1,4.83.28,7.22,7.22,0,0,1,2.74,4,16.67,16.67,0,0,1,4.68-2.78,4.84,4.84,0,0,1,6.57,5.51,16.42,16.42,0,0,1-1.92,5.09,7.23,7.23,0,0,1,4.43,2,5.27,5.27,0,0,1,1.11,4.71c-.37,2.1-2.77,4.08-7.34,6a86.86,86.86,0,0,1-12.12,3.92h0A7.75,7.75,0,0,1,104.91,181.14Zm1.22-27.22a4.33,4.33,0,0,0-1.52.31c-.85.3-3.7,2.58-5,19a5.3,5.3,0,0,0,4.87,5.68,5,5,0,0,0,1.73-.15c15.92-4.08,17.67-7.29,17.82-8.18a3.13,3.13,0,0,0-.57-2.81c-1.19-1.32-3.85-1.43-4.78-1.36a1.12,1.12,0,0,1-1.2-1,1.13,1.13,0,0,1,.26-.81,13.22,13.22,0,0,0,2.68-5.87,2.61,2.61,0,0,0-3.54-3,13.32,13.32,0,0,0-5.31,3.67,1.13,1.13,0,0,1-1.58.15,1.11,1.11,0,0,1-.39-.76c-.1-.92-.67-3.52-2.17-4.47a2.5,2.5,0,0,0-1.35-.37Z"/><path class="cls-2" d="M119.26,166.2a11.75,11.75,0,0,1-1.43.79c-.49.24-1,.45-1.51.66-1,.43-2,.82-3.12,1.16.74-.84,1.52-1.63,2.32-2.39.4-.37.8-.75,1.22-1.1a11.42,11.42,0,0,1,1.3-1Z"/><path class="cls-2" d="M111.79,159.09a15.2,15.2,0,0,1-.74,1.45c-.28.47-.58.93-.88,1.39-.61.92-1.25,1.83-2,2.71.15-1.12.36-2.21.59-3.29.13-.53.24-1.07.39-1.59a13.47,13.47,0,0,1,.53-1.55Z"/><path class="cls-3" d="M30.9,115.43a4.12,4.12,0,0,0-6,1.14c-2.87,4.68-6.2,13.42.89,22.32,5.71,7.17,14,11.18,20.24,13.35A5.44,5.44,0,0,0,53,145.39,62,62,0,0,0,30.9,115.43Z"/><g class="cls-1"><path class="cls-2" d="M52.9,144.8a5.44,5.44,0,0,1-6.52,2.46c-6.28-2.17-14.53-6.18-20.24-13.35A18.18,18.18,0,0,1,22,123.6a17.54,17.54,0,0,0,3.86,15c5.71,7.17,14,11.18,20.24,13.35A5.44,5.44,0,0,0,53,145.07Z"/></g><g class="cls-4"><path class="cls-5" d="M28.53,118A62,62,0,0,1,51.78,147.1a5.3,5.3,0,0,1,.06,3.66A5.33,5.33,0,0,0,53,145.39a62.07,62.07,0,0,0-22.09-30,4.13,4.13,0,0,0-6,1.14c-.23.38-.47.8-.71,1.24A4.14,4.14,0,0,1,28.53,118Z"/></g><path class="cls-2" d="M47.84,153.7a6.63,6.63,0,0,1-2.16-.37c-6.19-2.12-14.82-6.23-20.78-13.72-7.59-9.54-3.87-18.91-1-23.65a5.29,5.29,0,0,1,7.27-1.73l.39.27h0A63.12,63.12,0,0,1,54.09,145a6.6,6.6,0,0,1-4.19,8.34,6.84,6.84,0,0,1-2.06.34ZM28.42,115.77a2.6,2.6,0,0,0-.56.06,2.92,2.92,0,0,0-1.95,1.34c-3.15,5.16-5.57,13,.81,21,5.61,7.05,13.82,11,19.71,13a4.22,4.22,0,0,0,4.42-1,4.18,4.18,0,0,0,1-4.36,60.82,60.82,0,0,0-21.69-29.4A3,3,0,0,0,28.42,115.77Z"/><ellipse class="cls-2" cx="51.43" cy="93.82" rx="8.08" ry="5.69" transform="translate(-46.97 135.83) rotate(-84.39)"/><ellipse class="cls-5" cx="53" cy="92.7" rx="2.71" ry="1.72" transform="translate(-44.43 136.38) rotate(-84.39)"/><path class="cls-2" d="M98,90.62A30.07,30.07,0,0,0,95,91.68a20.43,20.43,0,0,0-2.79,1.44c-.45.26-.85.57-1.26.86l-.58.48L90,94.7l-.27.27a14.1,14.1,0,0,0-1.93,2.29L86,95.15a1.18,1.18,0,0,1,.23-.09l.19-.07.37-.11c.25-.07.5-.12.74-.17A12.55,12.55,0,0,1,89,94.5a11.31,11.31,0,0,1,3,.17,10.28,10.28,0,0,1,2.77.93,10.15,10.15,0,0,1,2.34,1.64.5.5,0,0,1,0,.71.5.5,0,0,1-.53.15l-.06,0c-.42-.14-.8-.31-1.21-.44a10.11,10.11,0,0,0-1.2-.32A11.51,11.51,0,0,0,91.69,97a11.69,11.69,0,0,0-2.36.19c-.2,0-.38.08-.57.12l-.57.15-.55.17-.26.1-.12,0-.09,0,0,0a1.47,1.47,0,0,1-1.81-2.14,13.23,13.23,0,0,1,2.38-3,14.13,14.13,0,0,1,1.49-1.19,14.77,14.77,0,0,1,1.65-.92,12.88,12.88,0,0,1,3.53-1.08,11.18,11.18,0,0,1,3.65,0,.51.51,0,0,1,.41.6.5.5,0,0,1-.36.39Z"/><path class="cls-12" d="M110.52,59.7H30.64a53.67,53.67,0,0,1,2-8.79C36,40,44.61,21.76,65.85,12.11a11.4,11.4,0,0,1,9.46,0C106.82,26.43,110.52,59.7,110.52,59.7Z"/><g class="cls-13"><path class="cls-2" d="M108.51,50.91A41.22,41.22,0,0,0,104,48.46,28,28,0,0,1,90.4,34.75,74.88,74.88,0,0,0,80.22,19a64,64,0,0,1,6.12,16.85,5.57,5.57,0,0,1-6,6.72l-.13,0a5.56,5.56,0,0,1-5.05-5.12c-.69-9.23-3-15-4.06-17.31a.64.64,0,0,0-.85-.3.62.62,0,0,0-.3.3c-1.08,2.29-3.37,8.08-4.06,17.31a5.57,5.57,0,0,1-5.06,5.12l-.12,0a5.57,5.57,0,0,1-5.95-6.72A63.77,63.77,0,0,1,60.94,19,75.41,75.41,0,0,0,50.75,34.75,28,28,0,0,1,37.18,48.46a41.08,41.08,0,0,0-4.52,2.45,52.39,52.39,0,0,0-2,8.79h79.88A52.86,52.86,0,0,0,108.51,50.91Z"/></g><g class="cls-4"><path class="cls-5" d="M32.66,54.17C36,43.29,44.61,25,65.85,15.36a11.48,11.48,0,0,1,9.46,0C100.83,27,108.11,51,110,59.7h.57s-3.7-33.28-35.21-47.59a11.4,11.4,0,0,0-9.46,0C44.61,21.76,36,40,32.66,50.91a53.67,53.67,0,0,0-2,8.79h.57C31.53,58.24,32,56.36,32.66,54.17Z"/></g><path class="cls-2" d="M110.52,60.87H30.64a1.16,1.16,0,0,1-1.16-1.16v-.13a64.15,64.15,0,0,1,5.9-18.81,61.47,61.47,0,0,1,30-29.72,12.55,12.55,0,0,1,10.42,0,61.38,61.38,0,0,1,30,29.72,64.14,64.14,0,0,1,5.9,18.8,1.17,1.17,0,0,1-1,1.29h-.13ZM32,58.54h77.18a65.7,65.7,0,0,0-5.52-16.84A59.1,59.1,0,0,0,74.83,13.17a10.23,10.23,0,0,0-8.49,0A59.15,59.15,0,0,0,37.48,41.78,65.82,65.82,0,0,0,32,58.54Z"/><path class="cls-2" d="M61,19c-1.13,1.89-2.28,3.72-3.4,5.56s-2.23,3.69-3.3,5.55-2.1,3.74-3.09,5.65c-.24.48-.48,1-.74,1.44l-.71,1.46-.37.72c-.11.25-.22.5-.34.74-.23.49-.46,1-.72,1.48.09-.54.2-1.08.31-1.62,0-.27.11-.54.17-.81l.23-.79c.14-.53.31-1.05.47-1.58s.36-1,.55-1.55a43.72,43.72,0,0,1,2.82-5.95,44.56,44.56,0,0,1,3.63-5.49l1-1.28,1.09-1.23A24.5,24.5,0,0,1,61,19Z"/><path class="cls-2" d="M80.22,19a24.39,24.39,0,0,1,2.36,2.3c.37.4.72.82,1.09,1.23l1,1.28a43.44,43.44,0,0,1,3.63,5.49,42.56,42.56,0,0,1,2.82,5.95c.19.52.38,1,.56,1.55s.32,1,.47,1.59l.22.79c.06.27.12.54.17.8.11.54.22,1.08.31,1.62-.26-.49-.49-1-.72-1.47-.12-.25-.23-.5-.34-.74l-.37-.73-.7-1.46c-.26-.48-.5-1-.75-1.44-1-1.91-2-3.8-3.08-5.65s-2.18-3.71-3.3-5.55S81.35,20.86,80.22,19Z"/><path class="cls-2" d="M70.59,19.67a36.55,36.55,0,0,1,.83,5.83c.14,1.95.18,3.89.14,5.84s-.1,3.89-.25,5.83c-.07,1-.16,1.95-.28,2.92S70.78,42,70.59,43c-.19-1-.32-1.95-.44-2.92s-.21-2-.28-2.92c-.15-1.94-.23-3.89-.25-5.83s0-3.89.14-5.84A36.71,36.71,0,0,1,70.59,19.67Z"/><path class="cls-12" d="M70.58,45.61c16,0,27.22,3.74,33.8,6.87a17.92,17.92,0,0,1,9.35,21.76l-.14.39c-15.48-8.93-43-8.79-43-8.79s-27.52-.14-43,8.79c0,0-.05-.14-.13-.39a17.91,17.91,0,0,1,9.34-21.76C43.37,49.36,54.59,45.61,70.58,45.61Z"/><path class="cls-2" d="M27.49,74.87l-.07-.19-.14-.39a18.1,18.1,0,0,1,9.43-22c6.62-3.14,17.87-6.88,33.87-6.88s27.25,3.74,33.87,6.88a18.1,18.1,0,0,1,9.43,22c-.08.26-.13.39-.13.39l-.07.18-.17-.09C98.25,66,70.86,66,70.58,66s-27.66,0-42.93,8.77Zm43.13-9.19c1.16,0,27.77.11,42.88,8.71l.07-.2a17.77,17.77,0,0,0-9.26-21.56c-6.59-3.13-17.79-6.85-33.73-6.85S43.44,49.5,36.85,52.63a17.76,17.76,0,0,0-9.26,21.55c0,.08.05.15.07.21C43,65.64,70.31,65.68,70.58,65.68Z"/><g class="cls-1"><path class="cls-2" d="M113.73,68.7c-.09.26-.13.4-.13.4-15.49-8.93-43-8.79-43-8.79s-27.52-.14-43,8.78c0,0-.05-.13-.13-.39a17.14,17.14,0,0,1-.67-2.81,17.6,17.6,0,0,0,.67,8.34c.08.26.13.39.13.39,15.49-8.92,43-8.78,43-8.78s27.53-.14,43,8.78c0,0,0-.13.13-.39a17.73,17.73,0,0,0,.68-8.34A17.69,17.69,0,0,1,113.73,68.7Z"/></g><g class="cls-4"><path class="cls-5" d="M104.38,52.48c-6.58-3.12-17.81-6.87-33.8-6.87s-27.21,3.74-33.8,6.87A17.92,17.92,0,0,0,26.62,70.29,17.93,17.93,0,0,1,36.78,55.73a73.08,73.08,0,0,1,23.32-6.3,1.65,1.65,0,0,1,1.28.38c1.22,1.07,4.88,1.85,9.2,1.85s8-.78,9.2-1.85a1.7,1.7,0,0,1,1.28-.38,73,73,0,0,1,23.32,6.3,18,18,0,0,1,10.17,14.56A17.93,17.93,0,0,0,104.38,52.48Z"/></g><path class="cls-2" d="M113.59,75.79a1.1,1.1,0,0,1-.58-.16C98,67,70.87,67,70.59,67s-27.41,0-42.44,8.63a1.16,1.16,0,0,1-1.58-.42,1.51,1.51,0,0,1-.09-.18l-.15-.43a19.09,19.09,0,0,1,10-23.17c6.71-3.18,18.11-7,34.29-7s27.59,3.8,34.3,7a19.1,19.1,0,0,1,10,23.17c-.09.28-.15.43-.15.43a1.16,1.16,0,0,1-1.09.76Zm-43-29c-15.75,0-26.8,3.67-33.3,6.75a16.77,16.77,0,0,0-9,19.39C44,64.64,69.48,64.67,70.59,64.68s26.59,0,42.31,8.24a16.76,16.76,0,0,0-9-19.39C97.39,50.45,86.33,46.78,70.58,46.78Z"/><ellipse class="cls-12" cx="70.58" cy="7.82" rx="9.21" ry="6.66"/><path class="cls-2" d="M70.58,14.65c-5.17,0-9.37-3.06-9.37-6.83S65.41,1,70.58,1,80,4.06,80,7.82,75.75,14.65,70.58,14.65Zm0-13.32c-5,0-9,2.91-9,6.49s4.06,6.5,9,6.5,9-2.91,9-6.5S75.57,1.33,70.58,1.33Z"/><g class="cls-13"><path class="cls-2" d="M70.58,11.55c-4.39,0-8.06-2.22-9-5.19a5.18,5.18,0,0,0-.23,1.46c0,3.68,4.13,6.66,9.21,6.66s9.21-3,9.21-6.66a4.84,4.84,0,0,0-.23-1.46C78.64,9.33,75,11.55,70.58,11.55Z"/></g><g class="cls-4"><path class="cls-5" d="M70.58,3.44c4.55,0,8.32,2.39,9.07,5.52a4.81,4.81,0,0,0,.14-1.14c0-3.67-4.12-6.66-9.21-6.66s-9.2,3-9.2,6.66A4.8,4.8,0,0,0,61.51,9C62.26,5.83,66,3.44,70.58,3.44Z"/></g><path class="cls-2" d="M70.58,15.65c-5.72,0-10.37-3.51-10.37-7.83S64.87,0,70.58,0,81,3.51,81,7.82,76.3,15.65,70.58,15.65Zm0-13.33c-4.43,0-8,2.47-8,5.5s3.61,5.5,8,5.5,8-2.47,8-5.5S75,2.32,70.58,2.32Z"/></svg>